M48
;Layer_Color=9474304
;FILE_FORMAT=4:2
METRIC,LZ
;TYPE=PLATED
T1F00S00C0.25
T2F00S00C0.30
T3F00S00C0.45
T4F00S00C0.50
T6F00S00C0.71
T7F00S00C0.76
T8F00S00C0.80
T9F00S00C1.40
T10F00S00C1.60
T11F00S00C3.50
;TYPE=NON_PLATED
T12F00S00C0.65
%
T01
X005565Y007915
X005865
T02
X00833Y-00017
X0085Y-00024
X00867Y-00017
X00874Y0
X00867Y00017
X0085Y00024
X00833Y00017
X00826Y0
X007593Y001527
X006753Y001527
X0067Y0014
X0065
X0063
X0064Y0013
X0062
X0061Y0014
X006Y0013
X005965Y001527
X0066Y0013
X0068
X0049
X0048Y0014
X0046
X0044
X0045Y0013
X0043
X0042Y0014
X0041Y0013
X0039
X004072Y001527
X0047Y0013
X004992Y001527
X006528Y00338
X002927Y003275
X002695Y00317
X002512
Y003275
X002845Y00273
X001735Y002482
X001543Y00292
X001484Y001918
X001917Y00198
X0023Y0014
X0025
X0027
X0029
X0031
X003Y0013
X0032
X003233Y001527
X0028Y0013
X0026
X0024
X00123Y001135
X0012Y001
Y0009
X00123Y000825
X0006Y001
Y0012
Y0014
Y0016
X-00012
Y001755
Y001445
X0004Y001
X00017Y00017
X00024Y0
X00017Y-00017
X0Y-00024
Y00024
X000135Y002642
X000465Y002683
X-00021Y00144
X-00017Y00017
X-00024Y0
X-00017Y-00017
X00037Y0042
Y00525
X000514Y006138
X00165Y005603
X001892Y005485
X002552Y00605
X0027Y006
X0029
Y0062
Y0064
X0028Y0063
Y0065
X0029Y0066
X0027
Y0064
Y0062
X0028Y0061
X003312Y005995
X00353Y005788
X0037Y0057
Y0059
X0038Y0058
Y006
Y0062
Y0063
X0037Y0061
Y007
Y0071
Y0072
X0033
X003Y0073
X0028
X0025Y0072
Y0071
Y007
X002655Y006757
X00312Y00676
X00189
X0019Y0073
X0017
X0015
X002334Y006272
X003215Y005553
X003183Y00544
X003222Y004918
X003332Y004918
X003442Y004918
X003552Y004918
X00363Y00484
X00363Y00473
X00363Y00462
X00363Y00451
X00363Y0044
X00352Y0044
X00341Y0044
X0033Y0044
X00319Y0044
X003112Y004478
X003112Y004588
X003112Y004698
X003112Y004808
X003112Y004918
X002757Y00471
X00253Y003697
X002138
X003644Y003697
X004355Y003638
X004285Y00467
X004192Y00508
X00456Y00599
X004687
X004678Y006312
X0046Y0063
X0048
X004803Y006758
X0043Y0065
X0042Y0064
X004
X0039Y0063
Y0065
X0041
X00389Y00676
X0041Y0073
X0042Y0072
X0043Y0073
X0044Y0072
X0045Y0073
X0055Y007488
X005978
X0062Y0073
Y0071
Y0069
X006
X0061Y007
X00574Y007007
X005238Y006235
X005647Y005567
X00592Y005825
X00638
X0069Y0056
Y0054
X006897Y005212
X0071Y0051
Y0049
X007245Y00476
X007047Y004603
X007235Y00529
X00724Y00564
X00712Y005935
X00738Y00594
X005847Y005175
X005642Y00501
X005642Y004166
X005488
X00833Y00783
X00826Y008
X00833Y00817
X0085Y00824
X00867Y00817
X00874Y008
X00867Y00783
X0085Y00776
X00638Y008283
X005865Y00819
X005565Y00819
X00017Y00817
X00024Y008
X00017Y00783
X0Y00776
Y00824
X-00017Y00817
X-00024Y008
X-00017Y00783
T03
X00753Y00564
X008197Y00564
T04
X00875Y0005
Y001
Y0015
Y002
Y0025
Y003
Y0035
X00775Y00075
X0065
X00625
X006
X005795Y001085
X00475Y00075
X0045
X00425
Y0025
X004
Y003
X00425
X00375
X0035
Y0025
X00375
X00275Y00225
X00225
X00175
X00125
X00075
X00125Y0035
X0025Y00075
X00275
X003
X0025Y00025
Y-00025
X002
X0015
X001
X0005
X-00025Y001
Y002
Y0025
Y003
Y0035
Y004
Y0045
Y005
Y0055
Y006
Y0065
Y007
Y0075
X0015Y00525
Y005
Y00475
Y0045
Y00425
X00125
Y004
Y00375
X003Y00425
X00275Y00475
X0025
X004Y00525
X00425
X0045
X004Y0055
X0055
X00575
Y00525
X0055
Y005
Y00575
X00575
Y006
X006Y00625
Y0065
Y007
X0055Y00675
X00525Y007
Y00725
Y0075
X007Y00575
Y0055
X00725
Y005
X007Y00525
Y004
X00725Y00375
X0075
X00675Y00425
X0065Y0045
X00625
X006
X00425Y004
X00875
Y0045
Y005
Y0055
Y006
Y0065
Y007
Y0075
X008Y00825
X0075
X007
X0065
X006
X0055
X005
X0045
X004
X0035
X003
X0025
X002
X0015
X001
X0005
T06
X00563Y004683
X005803
T07
X003052Y0031
X00301Y00578
T08
X00783Y003278
X00707
T09
X003975Y000356
X004505Y000356
X004855
X005385
X005735
X006265Y000356
X006615
X007145Y000356
X007495
X003625Y000356
X003095
X002745
X00193Y00035
X00158
X00123
X00058Y00067
X000231
X-00012
X-00006Y00732
X00029
X00064
X00423Y00765
X00458
X00493
X00369Y00765
X00334
X00299
X00246
X00211
X00176
T10
X00687Y00746
X00737
T11
X0085Y0
X0
X0085Y008
X0
T12
X005451Y007826
X006029
M30
