G04*
G04 #@! TF.GenerationSoftware,Altium Limited,Altium Designer,19.1.9 (167)*
G04*
G04 Layer_Color=16711935*
%FSLAX42Y42*%
%MOMM*%
G71*
G01*
G75*
%ADD49R,1.05X1.05*%
%ADD50R,1.05X1.05*%
%ADD58R,1.80X1.40*%
%ADD75C,1.80*%
%ADD76R,2.60X2.60*%
%ADD77C,2.60*%
%ADD78O,1.20X2.00*%
%ADD79O,1.20X2.30*%
%ADD80C,0.85*%
G04:AMPARAMS|DCode=81|XSize=1.73mm|YSize=1.73mm|CornerRadius=0.48mm|HoleSize=0mm|Usage=FLASHONLY|Rotation=90.000|XOffset=0mm|YOffset=0mm|HoleType=Round|Shape=RoundedRectangle|*
%AMROUNDEDRECTD81*
21,1,1.73,0.76,0,0,90.0*
21,1,0.76,1.73,0,0,90.0*
1,1,0.97,0.38,0.38*
1,1,0.97,0.38,-0.38*
1,1,0.97,-0.38,-0.38*
1,1,0.97,-0.38,0.38*
%
%ADD81ROUNDEDRECTD81*%
%ADD82C,2.30*%
%ADD83R,2.30X2.30*%
%ADD84C,6.20*%
G04:AMPARAMS|DCode=85|XSize=1.73mm|YSize=1.73mm|CornerRadius=0.48mm|HoleSize=0mm|Usage=FLASHONLY|Rotation=0.000|XOffset=0mm|YOffset=0mm|HoleType=Round|Shape=RoundedRectangle|*
%AMROUNDEDRECTD85*
21,1,1.73,0.76,0,0,0.0*
21,1,0.76,1.73,0,0,0.0*
1,1,0.97,0.38,-0.38*
1,1,0.97,-0.38,-0.38*
1,1,0.97,-0.38,0.38*
1,1,0.97,0.38,0.38*
%
%ADD85ROUNDEDRECTD85*%
%ADD86C,0.80*%
D49*
X2980Y4880D02*
D03*
X3120Y4880D02*
D03*
X2980Y4650D02*
D03*
X3120D02*
D03*
X2980Y4440D02*
D03*
X3120Y4440D02*
D03*
D50*
X5865Y8050D02*
D03*
Y8190D02*
D03*
X5565Y8050D02*
D03*
Y8190D02*
D03*
X802Y5990D02*
D03*
Y6130D02*
D03*
X4350Y6610D02*
D03*
Y6750D02*
D03*
D58*
X3415Y4883D02*
D03*
X3415Y5203D02*
D03*
X4078Y4485D02*
D03*
X4078Y4165D02*
D03*
D75*
X7070Y3278D02*
D03*
X7830D02*
D03*
D76*
X7370Y7460D02*
D03*
D77*
X6870D02*
D03*
D78*
X5308Y8194D02*
D03*
X6172D02*
D03*
D79*
X5308Y7776D02*
D03*
X6172Y7776D02*
D03*
D80*
X6029Y7826D02*
D03*
X5451D02*
D03*
D81*
X3010Y5780D02*
D03*
D82*
X580Y670D02*
D03*
X231D02*
D03*
X-60Y7320D02*
D03*
X290D02*
D03*
X6615Y356D02*
D03*
X7495Y356D02*
D03*
X4855D02*
D03*
X5735D02*
D03*
X3975Y356D02*
D03*
X3095Y356D02*
D03*
X1760Y7650D02*
D03*
X2110D02*
D03*
X2990D02*
D03*
X3340D02*
D03*
X1930Y350D02*
D03*
X1580D02*
D03*
X4230Y7650D02*
D03*
X4580D02*
D03*
D83*
X-120Y670D02*
D03*
X640Y7320D02*
D03*
X6265Y356D02*
D03*
X7145Y356D02*
D03*
X4505D02*
D03*
X5385D02*
D03*
X3625Y356D02*
D03*
X2745D02*
D03*
X2460Y7650D02*
D03*
X3690D02*
D03*
X1230Y350D02*
D03*
X4930Y7650D02*
D03*
D84*
X8500Y8000D02*
D03*
X0D02*
D03*
X8500Y0D02*
D03*
X0D02*
D03*
D85*
X3052Y3100D02*
D03*
D86*
X370Y4200D02*
D03*
M02*
