G04*
G04 #@! TF.GenerationSoftware,Altium Limited,Altium Designer,19.1.9 (167)*
G04*
G04 Layer_Color=8388736*
%FSLAX42Y42*%
%MOMM*%
G71*
G01*
G75*
%ADD47C,3.00*%
%ADD48R,1.20X2.20*%
%ADD49R,1.05X1.05*%
%ADD50R,1.05X1.05*%
%ADD51R,2.80X2.10*%
%ADD52O,1.60X0.50*%
%ADD53O,0.50X1.60*%
G04:AMPARAMS|DCode=54|XSize=1.75mm|YSize=0.8mm|CornerRadius=0.4mm|HoleSize=0mm|Usage=FLASHONLY|Rotation=90.000|XOffset=0mm|YOffset=0mm|HoleType=Round|Shape=RoundedRectangle|*
%AMROUNDEDRECTD54*
21,1,1.75,0.00,0,0,90.0*
21,1,0.95,0.80,0,0,90.0*
1,1,0.80,0.00,0.48*
1,1,0.80,0.00,-0.48*
1,1,0.80,0.00,-0.48*
1,1,0.80,0.00,0.48*
%
%ADD54ROUNDEDRECTD54*%
%ADD55R,1.80X0.85*%
G04:AMPARAMS|DCode=56|XSize=0.8mm|YSize=1.8mm|CornerRadius=0.25mm|HoleSize=0mm|Usage=FLASHONLY|Rotation=180.000|XOffset=0mm|YOffset=0mm|HoleType=Round|Shape=RoundedRectangle|*
%AMROUNDEDRECTD56*
21,1,0.80,1.30,0,0,180.0*
21,1,0.30,1.80,0,0,180.0*
1,1,0.50,-0.15,0.65*
1,1,0.50,0.15,0.65*
1,1,0.50,0.15,-0.65*
1,1,0.50,-0.15,-0.65*
%
%ADD56ROUNDEDRECTD56*%
%ADD57O,0.80X1.80*%
%ADD58R,1.80X1.40*%
G04:AMPARAMS|DCode=59|XSize=1.22mm|YSize=1.73mm|CornerRadius=0.36mm|HoleSize=0mm|Usage=FLASHONLY|Rotation=270.000|XOffset=0mm|YOffset=0mm|HoleType=Round|Shape=RoundedRectangle|*
%AMROUNDEDRECTD59*
21,1,1.22,1.02,0,0,270.0*
21,1,0.51,1.73,0,0,270.0*
1,1,0.71,-0.51,-0.25*
1,1,0.71,-0.51,0.25*
1,1,0.71,0.51,0.25*
1,1,0.71,0.51,-0.25*
%
%ADD59ROUNDEDRECTD59*%
%ADD60R,5.30X2.10*%
%ADD61R,1.90X2.70*%
G04:AMPARAMS|DCode=62|XSize=0.75mm|YSize=1.2mm|CornerRadius=0.24mm|HoleSize=0mm|Usage=FLASHONLY|Rotation=90.000|XOffset=0mm|YOffset=0mm|HoleType=Round|Shape=RoundedRectangle|*
%AMROUNDEDRECTD62*
21,1,0.75,0.73,0,0,90.0*
21,1,0.28,1.20,0,0,90.0*
1,1,0.48,0.36,0.14*
1,1,0.48,0.36,-0.14*
1,1,0.48,-0.36,-0.14*
1,1,0.48,-0.36,0.14*
%
%ADD62ROUNDEDRECTD62*%
G04:AMPARAMS|DCode=63|XSize=0.75mm|YSize=1.2mm|CornerRadius=0.24mm|HoleSize=0mm|Usage=FLASHONLY|Rotation=180.000|XOffset=0mm|YOffset=0mm|HoleType=Round|Shape=RoundedRectangle|*
%AMROUNDEDRECTD63*
21,1,0.75,0.73,0,0,180.0*
21,1,0.28,1.20,0,0,180.0*
1,1,0.48,-0.14,0.36*
1,1,0.48,0.14,0.36*
1,1,0.48,0.14,-0.36*
1,1,0.48,-0.14,-0.36*
%
%ADD63ROUNDEDRECTD63*%
%ADD64R,2.70X2.50*%
%ADD65P,1.49X4X180.0*%
%ADD66R,1.50X0.80*%
%ADD67R,1.80X3.40*%
%ADD68R,3.80X2.60*%
%ADD69R,3.70X1.98*%
%ADD70R,2.50X2.70*%
%ADD71R,0.80X1.34*%
%ADD72R,0.50X1.34*%
%ADD73R,1.40X1.80*%
%ADD74R,0.95X2.60*%
%ADD75C,1.80*%
%ADD76R,2.60X2.60*%
%ADD77C,2.60*%
%ADD78O,1.20X2.00*%
%ADD79O,1.20X2.30*%
%ADD80C,0.85*%
G04:AMPARAMS|DCode=81|XSize=1.73mm|YSize=1.73mm|CornerRadius=0.48mm|HoleSize=0mm|Usage=FLASHONLY|Rotation=90.000|XOffset=0mm|YOffset=0mm|HoleType=Round|Shape=RoundedRectangle|*
%AMROUNDEDRECTD81*
21,1,1.73,0.76,0,0,90.0*
21,1,0.76,1.73,0,0,90.0*
1,1,0.97,0.38,0.38*
1,1,0.97,0.38,-0.38*
1,1,0.97,-0.38,-0.38*
1,1,0.97,-0.38,0.38*
%
%ADD81ROUNDEDRECTD81*%
%ADD82C,2.30*%
%ADD83R,2.30X2.30*%
%ADD84C,6.20*%
G04:AMPARAMS|DCode=85|XSize=1.73mm|YSize=1.73mm|CornerRadius=0.48mm|HoleSize=0mm|Usage=FLASHONLY|Rotation=0.000|XOffset=0mm|YOffset=0mm|HoleType=Round|Shape=RoundedRectangle|*
%AMROUNDEDRECTD85*
21,1,1.73,0.76,0,0,0.0*
21,1,0.76,1.73,0,0,0.0*
1,1,0.97,0.38,-0.38*
1,1,0.97,-0.38,-0.38*
1,1,0.97,-0.38,0.38*
1,1,0.97,0.38,0.38*
%
%ADD85ROUNDEDRECTD85*%
%ADD86C,0.80*%
D47*
X500Y8000D02*
D03*
X8000D02*
D03*
X500Y0D02*
D03*
D48*
X-70Y5000D02*
D03*
X370D02*
D03*
D49*
X70Y4740D02*
D03*
X-70D02*
D03*
X370D02*
D03*
X230D02*
D03*
X1797Y4778D02*
D03*
X1938D02*
D03*
X1797Y4348D02*
D03*
X1938D02*
D03*
X3645Y3558D02*
D03*
X3785D02*
D03*
X4353Y3360D02*
D03*
X4212D02*
D03*
X4355Y3150D02*
D03*
X4215Y3150D02*
D03*
X580Y2140D02*
D03*
X441Y2140D02*
D03*
X1930Y1520D02*
D03*
X1790D02*
D03*
X6322Y5567D02*
D03*
X6462D02*
D03*
X5920Y5825D02*
D03*
X6060D02*
D03*
X6375Y6075D02*
D03*
X6515D02*
D03*
X7240Y5640D02*
D03*
X7380Y5640D02*
D03*
X6333Y3725D02*
D03*
X6192D02*
D03*
X2340Y7410D02*
D03*
X2200D02*
D03*
X3200Y780D02*
D03*
X3060D02*
D03*
X4240Y7020D02*
D03*
X4380D02*
D03*
X4670Y7230D02*
D03*
X4810D02*
D03*
X4670Y7390D02*
D03*
X4810D02*
D03*
X-50Y6400D02*
D03*
X90D02*
D03*
X380Y6610D02*
D03*
X520Y6610D02*
D03*
X380Y6770D02*
D03*
X520D02*
D03*
X2520Y7410D02*
D03*
X2660D02*
D03*
X2200Y7250D02*
D03*
X2340D02*
D03*
X1890Y7410D02*
D03*
X2030D02*
D03*
X6580Y780D02*
D03*
X6720Y780D02*
D03*
X6907Y1527D02*
D03*
X7047D02*
D03*
X7622Y780D02*
D03*
X7482D02*
D03*
X7438Y1527D02*
D03*
X7297D02*
D03*
X4820Y780D02*
D03*
X4960D02*
D03*
X5147Y1527D02*
D03*
X5288D02*
D03*
X5860Y780D02*
D03*
X5720D02*
D03*
X5678Y1527D02*
D03*
X5538D02*
D03*
X3388Y1527D02*
D03*
X3528D02*
D03*
X4100Y780D02*
D03*
X3960Y780D02*
D03*
X3917Y1527D02*
D03*
X3778D02*
D03*
X3750Y7410D02*
D03*
X3890D02*
D03*
X3430D02*
D03*
X3570D02*
D03*
X3430Y7250D02*
D03*
X3570D02*
D03*
X3120Y7410D02*
D03*
X3260D02*
D03*
X1170Y590D02*
D03*
X1030D02*
D03*
X1490D02*
D03*
X1350D02*
D03*
X1490Y750D02*
D03*
X1350Y750D02*
D03*
X1800Y590D02*
D03*
X1660D02*
D03*
X-179Y1210D02*
D03*
X-319D02*
D03*
X140D02*
D03*
X0D02*
D03*
X140Y1370D02*
D03*
X0Y1370D02*
D03*
X451Y1210D02*
D03*
X311D02*
D03*
D50*
X370Y4430D02*
D03*
Y4570D02*
D03*
X2690Y3957D02*
D03*
Y3817D02*
D03*
X2530Y3815D02*
D03*
X2530Y3955D02*
D03*
X2293Y3952D02*
D03*
X2293Y3812D02*
D03*
X2135Y3810D02*
D03*
X2135Y3950D02*
D03*
X1512Y3805D02*
D03*
Y3945D02*
D03*
X1667Y3807D02*
D03*
Y3947D02*
D03*
X3170Y2730D02*
D03*
Y2870D02*
D03*
X3000D02*
D03*
Y2730D02*
D03*
X1543Y2765D02*
D03*
Y2625D02*
D03*
X261Y2500D02*
D03*
Y2360D02*
D03*
X451Y1460D02*
D03*
Y1600D02*
D03*
X1610Y1880D02*
D03*
Y1740D02*
D03*
X1800Y840D02*
D03*
Y980D02*
D03*
X5642Y5010D02*
D03*
Y4870D02*
D03*
X5642Y4675D02*
D03*
Y4535D02*
D03*
X6695Y6078D02*
D03*
X6695Y5938D02*
D03*
X6957Y6078D02*
D03*
Y5938D02*
D03*
X7643Y5870D02*
D03*
Y6010D02*
D03*
X7047Y4603D02*
D03*
X7047Y4462D02*
D03*
X7830Y4120D02*
D03*
Y3980D02*
D03*
X3310Y6120D02*
D03*
Y6260D02*
D03*
X3123Y6618D02*
D03*
Y6478D02*
D03*
X3120Y7160D02*
D03*
Y7020D02*
D03*
X1890Y7160D02*
D03*
Y7020D02*
D03*
X1890Y6620D02*
D03*
Y6480D02*
D03*
X2080Y6120D02*
D03*
Y6260D02*
D03*
X1343Y7850D02*
D03*
Y7710D02*
D03*
X1090Y7850D02*
D03*
Y7710D02*
D03*
X825Y7847D02*
D03*
Y7707D02*
D03*
X6380Y7888D02*
D03*
Y7748D02*
D03*
X5650Y7130D02*
D03*
X5650Y7270D02*
D03*
X5840Y7130D02*
D03*
Y7270D02*
D03*
X7120Y5935D02*
D03*
Y6075D02*
D03*
D51*
X2202Y4348D02*
D03*
Y4778D02*
D03*
D52*
X3795Y4935D02*
D03*
Y4885D02*
D03*
Y4835D02*
D03*
Y4785D02*
D03*
Y4735D02*
D03*
Y4685D02*
D03*
Y4635D02*
D03*
Y4585D02*
D03*
Y4535D02*
D03*
Y4485D02*
D03*
Y4435D02*
D03*
Y4385D02*
D03*
X2955D02*
D03*
Y4435D02*
D03*
Y4485D02*
D03*
Y4535D02*
D03*
Y4585D02*
D03*
Y4635D02*
D03*
Y4685D02*
D03*
Y4735D02*
D03*
Y4785D02*
D03*
Y4835D02*
D03*
Y4885D02*
D03*
Y4935D02*
D03*
D53*
X3100Y5080D02*
D03*
X3150D02*
D03*
X3200D02*
D03*
X3250D02*
D03*
X3300D02*
D03*
X3350D02*
D03*
X3400D02*
D03*
X3450D02*
D03*
X3500D02*
D03*
X3550D02*
D03*
X3600D02*
D03*
X3650D02*
D03*
Y4240D02*
D03*
X3600D02*
D03*
X3550D02*
D03*
X3500D02*
D03*
X3450D02*
D03*
X3400D02*
D03*
X3350D02*
D03*
X3300D02*
D03*
X3250D02*
D03*
X3200D02*
D03*
X3150D02*
D03*
X3100D02*
D03*
D54*
X3644Y3360D02*
D03*
X3772D02*
D03*
X3899D02*
D03*
X4026D02*
D03*
Y2820D02*
D03*
X3899D02*
D03*
X3772D02*
D03*
X3644D02*
D03*
X261Y1600D02*
D03*
X134D02*
D03*
X7D02*
D03*
X-120D02*
D03*
Y2140D02*
D03*
X7D02*
D03*
X134D02*
D03*
X261D02*
D03*
X1610Y980D02*
D03*
X1484D02*
D03*
X1356D02*
D03*
X1230D02*
D03*
Y1520D02*
D03*
X1356D02*
D03*
X1484D02*
D03*
X1610D02*
D03*
X3310Y7020D02*
D03*
X3437D02*
D03*
X3563D02*
D03*
X3690D02*
D03*
Y6480D02*
D03*
X3563D02*
D03*
X3437D02*
D03*
X3310D02*
D03*
X2080Y7020D02*
D03*
X2207D02*
D03*
X2334D02*
D03*
X2461D02*
D03*
Y6480D02*
D03*
X2334D02*
D03*
X2207D02*
D03*
X2080D02*
D03*
X4549Y7020D02*
D03*
X4676D02*
D03*
X4803D02*
D03*
X4931D02*
D03*
Y6480D02*
D03*
X4803D02*
D03*
X4676D02*
D03*
X4549D02*
D03*
X260Y6400D02*
D03*
X387D02*
D03*
X514D02*
D03*
X641D02*
D03*
X641Y5860D02*
D03*
X514D02*
D03*
X387D02*
D03*
X260D02*
D03*
D55*
X2445Y3018D02*
D03*
Y2891D02*
D03*
Y2764D02*
D03*
Y2637D02*
D03*
X1735D02*
D03*
X1735Y2764D02*
D03*
Y2891D02*
D03*
X1735Y3018D02*
D03*
D56*
X3399Y780D02*
D03*
X5160Y780D02*
D03*
X6919Y780D02*
D03*
D57*
X3526D02*
D03*
X3653D02*
D03*
X3781D02*
D03*
X3399Y1320D02*
D03*
X3526D02*
D03*
X3653D02*
D03*
X3781D02*
D03*
X5287Y780D02*
D03*
X5413Y780D02*
D03*
X5540D02*
D03*
X5160Y1320D02*
D03*
X5287D02*
D03*
X5413D02*
D03*
X5540D02*
D03*
X7046Y780D02*
D03*
X7174D02*
D03*
X7300D02*
D03*
X6919Y1320D02*
D03*
X7046D02*
D03*
X7174D02*
D03*
X7300D02*
D03*
D58*
X5847Y4855D02*
D03*
Y5175D02*
D03*
X7245Y4440D02*
D03*
Y4760D02*
D03*
D59*
X5642Y4166D02*
D03*
Y4369D02*
D03*
X6897Y5212D02*
D03*
Y5008D02*
D03*
X6380Y8261D02*
D03*
Y8058D02*
D03*
X1090Y8232D02*
D03*
Y8028D02*
D03*
X825Y8026D02*
D03*
Y8229D02*
D03*
X1343Y8028D02*
D03*
Y8232D02*
D03*
D60*
X6322Y4828D02*
D03*
Y5247D02*
D03*
X7670Y4408D02*
D03*
Y4828D02*
D03*
D61*
X5647Y5567D02*
D03*
X6047D02*
D03*
D62*
X6245Y5825D02*
D03*
X6245Y5730D02*
D03*
Y5920D02*
D03*
X6515D02*
D03*
X6515Y5825D02*
D03*
X6515Y5730D02*
D03*
D63*
X7380Y5805D02*
D03*
X7475D02*
D03*
X7285Y5805D02*
D03*
Y6075D02*
D03*
X7380Y6075D02*
D03*
X7475Y6075D02*
D03*
X5740Y6635D02*
D03*
X5835Y6635D02*
D03*
X5645D02*
D03*
X5645Y6905D02*
D03*
X5740Y6905D02*
D03*
X5835D02*
D03*
D64*
X7235Y5290D02*
D03*
X7665D02*
D03*
D65*
X6741Y4696D02*
D03*
X6839Y4794D02*
D03*
D66*
X6738Y3630D02*
D03*
X6528Y3535D02*
D03*
Y3725D02*
D03*
D67*
X8200Y5050D02*
D03*
X8760Y5050D02*
D03*
X8200Y5470D02*
D03*
X8760D02*
D03*
D68*
X8200Y6560D02*
D03*
Y6040D02*
D03*
D69*
X6870Y7080D02*
D03*
Y6560D02*
D03*
D70*
X7370Y6985D02*
D03*
Y6555D02*
D03*
D71*
X5420Y7719D02*
D03*
X5500Y7719D02*
D03*
X5980Y7719D02*
D03*
X6060Y7719D02*
D03*
D72*
X5915Y7719D02*
D03*
X5565D02*
D03*
X5865D02*
D03*
X5615Y7719D02*
D03*
X5815D02*
D03*
X5665Y7719D02*
D03*
X5765D02*
D03*
X5715D02*
D03*
D73*
X6378Y7235D02*
D03*
X6058D02*
D03*
D74*
X4941Y5445D02*
D03*
Y5835D02*
D03*
X4814D02*
D03*
Y5445D02*
D03*
X4687Y5835D02*
D03*
Y5445D02*
D03*
X4560Y5835D02*
D03*
Y5445D02*
D03*
X4433Y5835D02*
D03*
X4306D02*
D03*
X4179D02*
D03*
X4433Y5445D02*
D03*
X4306D02*
D03*
X4179D02*
D03*
D75*
X7070Y3278D02*
D03*
X7830D02*
D03*
D76*
X7370Y7460D02*
D03*
D77*
X6870D02*
D03*
D78*
X5308Y8194D02*
D03*
X6172D02*
D03*
D79*
X5308Y7776D02*
D03*
X6172Y7776D02*
D03*
D80*
X6029Y7826D02*
D03*
X5451D02*
D03*
D81*
X3010Y5780D02*
D03*
D82*
X580Y670D02*
D03*
X231D02*
D03*
X-60Y7320D02*
D03*
X290D02*
D03*
X6615Y356D02*
D03*
X7495Y356D02*
D03*
X4855D02*
D03*
X5735D02*
D03*
X3975Y356D02*
D03*
X3095Y356D02*
D03*
X1760Y7650D02*
D03*
X2110D02*
D03*
X2990D02*
D03*
X3340D02*
D03*
X1930Y350D02*
D03*
X1580D02*
D03*
X4230Y7650D02*
D03*
X4580D02*
D03*
D83*
X-120Y670D02*
D03*
X640Y7320D02*
D03*
X6265Y356D02*
D03*
X7145Y356D02*
D03*
X4505D02*
D03*
X5385D02*
D03*
X3625Y356D02*
D03*
X2745D02*
D03*
X2460Y7650D02*
D03*
X3690D02*
D03*
X1230Y350D02*
D03*
X4930Y7650D02*
D03*
D84*
X8500Y8000D02*
D03*
X0D02*
D03*
X8500Y0D02*
D03*
X0D02*
D03*
D85*
X3052Y3100D02*
D03*
D86*
X370Y4200D02*
D03*
M02*
