G04*
G04 #@! TF.GenerationSoftware,Altium Limited,Altium Designer,19.1.9 (167)*
G04*
G04 Layer_Color=8421504*
%FSLAX42Y42*%
%MOMM*%
G71*
G01*
G75*
%ADD19R,1.00X2.00*%
%ADD20R,0.85X0.85*%
%ADD21R,0.85X0.85*%
%ADD22R,2.60X1.90*%
%ADD23O,1.40X0.30*%
%ADD24O,0.30X1.40*%
G04:AMPARAMS|DCode=25|XSize=1.55mm|YSize=0.6mm|CornerRadius=0.3mm|HoleSize=0mm|Usage=FLASHONLY|Rotation=90.000|XOffset=0mm|YOffset=0mm|HoleType=Round|Shape=RoundedRectangle|*
%AMROUNDEDRECTD25*
21,1,1.55,0.00,0,0,90.0*
21,1,0.95,0.60,0,0,90.0*
1,1,0.60,0.00,0.48*
1,1,0.60,0.00,-0.48*
1,1,0.60,0.00,-0.48*
1,1,0.60,0.00,0.48*
%
%ADD25ROUNDEDRECTD25*%
%ADD26R,1.60X0.65*%
G04:AMPARAMS|DCode=27|XSize=0.6mm|YSize=1.6mm|CornerRadius=0.15mm|HoleSize=0mm|Usage=FLASHONLY|Rotation=180.000|XOffset=0mm|YOffset=0mm|HoleType=Round|Shape=RoundedRectangle|*
%AMROUNDEDRECTD27*
21,1,0.60,1.30,0,0,180.0*
21,1,0.30,1.60,0,0,180.0*
1,1,0.30,-0.15,0.65*
1,1,0.30,0.15,0.65*
1,1,0.30,0.15,-0.65*
1,1,0.30,-0.15,-0.65*
%
%ADD27ROUNDEDRECTD27*%
%ADD28O,0.60X1.60*%
%ADD29R,1.60X1.20*%
G04:AMPARAMS|DCode=30|XSize=1.02mm|YSize=1.52mm|CornerRadius=0.25mm|HoleSize=0mm|Usage=FLASHONLY|Rotation=270.000|XOffset=0mm|YOffset=0mm|HoleType=Round|Shape=RoundedRectangle|*
%AMROUNDEDRECTD30*
21,1,1.02,1.02,0,0,270.0*
21,1,0.51,1.52,0,0,270.0*
1,1,0.51,-0.51,-0.25*
1,1,0.51,-0.51,0.25*
1,1,0.51,0.51,0.25*
1,1,0.51,0.51,-0.25*
%
%ADD30ROUNDEDRECTD30*%
%ADD31R,5.10X1.90*%
%ADD32R,1.70X2.50*%
G04:AMPARAMS|DCode=33|XSize=0.55mm|YSize=1mm|CornerRadius=0.14mm|HoleSize=0mm|Usage=FLASHONLY|Rotation=90.000|XOffset=0mm|YOffset=0mm|HoleType=Round|Shape=RoundedRectangle|*
%AMROUNDEDRECTD33*
21,1,0.55,0.73,0,0,90.0*
21,1,0.28,1.00,0,0,90.0*
1,1,0.28,0.36,0.14*
1,1,0.28,0.36,-0.14*
1,1,0.28,-0.36,-0.14*
1,1,0.28,-0.36,0.14*
%
%ADD33ROUNDEDRECTD33*%
G04:AMPARAMS|DCode=34|XSize=0.55mm|YSize=1mm|CornerRadius=0.14mm|HoleSize=0mm|Usage=FLASHONLY|Rotation=180.000|XOffset=0mm|YOffset=0mm|HoleType=Round|Shape=RoundedRectangle|*
%AMROUNDEDRECTD34*
21,1,0.55,0.73,0,0,180.0*
21,1,0.28,1.00,0,0,180.0*
1,1,0.28,-0.14,0.36*
1,1,0.28,0.14,0.36*
1,1,0.28,0.14,-0.36*
1,1,0.28,-0.14,-0.36*
%
%ADD34ROUNDEDRECTD34*%
%ADD35R,2.50X2.30*%
%ADD36P,1.20X4X180.0*%
%ADD37R,1.30X0.60*%
%ADD38R,1.60X3.20*%
%ADD39R,3.60X2.40*%
%ADD40R,3.50X1.78*%
%ADD41R,2.30X2.50*%
%ADD42R,0.60X1.14*%
%ADD43R,0.30X1.14*%
%ADD44R,1.20X1.60*%
%ADD45R,0.75X2.40*%
D19*
X-70Y5000D02*
D03*
X370D02*
D03*
D20*
X70Y4740D02*
D03*
X-70D02*
D03*
X370D02*
D03*
X230D02*
D03*
X1797Y4778D02*
D03*
X1938D02*
D03*
X1797Y4348D02*
D03*
X1938D02*
D03*
X3645Y3558D02*
D03*
X3785D02*
D03*
X4353Y3360D02*
D03*
X4212D02*
D03*
X4355Y3150D02*
D03*
X4215Y3150D02*
D03*
X580Y2140D02*
D03*
X441Y2140D02*
D03*
X1930Y1520D02*
D03*
X1790D02*
D03*
X6322Y5567D02*
D03*
X6462D02*
D03*
X5920Y5825D02*
D03*
X6060D02*
D03*
X6375Y6075D02*
D03*
X6515D02*
D03*
X7240Y5640D02*
D03*
X7380Y5640D02*
D03*
X6333Y3725D02*
D03*
X6192D02*
D03*
X2340Y7410D02*
D03*
X2200D02*
D03*
X3200Y780D02*
D03*
X3060D02*
D03*
X4240Y7020D02*
D03*
X4380D02*
D03*
X4670Y7230D02*
D03*
X4810D02*
D03*
X4670Y7390D02*
D03*
X4810D02*
D03*
X-50Y6400D02*
D03*
X90D02*
D03*
X380Y6610D02*
D03*
X520Y6610D02*
D03*
X380Y6770D02*
D03*
X520D02*
D03*
X2520Y7410D02*
D03*
X2660D02*
D03*
X2200Y7250D02*
D03*
X2340D02*
D03*
X1890Y7410D02*
D03*
X2030D02*
D03*
X6580Y780D02*
D03*
X6720Y780D02*
D03*
X6907Y1527D02*
D03*
X7047D02*
D03*
X7622Y780D02*
D03*
X7482D02*
D03*
X7438Y1527D02*
D03*
X7297D02*
D03*
X4820Y780D02*
D03*
X4960D02*
D03*
X5147Y1527D02*
D03*
X5288D02*
D03*
X5860Y780D02*
D03*
X5720D02*
D03*
X5678Y1527D02*
D03*
X5538D02*
D03*
X3388Y1527D02*
D03*
X3528D02*
D03*
X4100Y780D02*
D03*
X3960Y780D02*
D03*
X3917Y1527D02*
D03*
X3778D02*
D03*
X3750Y7410D02*
D03*
X3890D02*
D03*
X3430D02*
D03*
X3570D02*
D03*
X3430Y7250D02*
D03*
X3570D02*
D03*
X3120Y7410D02*
D03*
X3260D02*
D03*
X1170Y590D02*
D03*
X1030D02*
D03*
X1490D02*
D03*
X1350D02*
D03*
X1490Y750D02*
D03*
X1350Y750D02*
D03*
X1800Y590D02*
D03*
X1660D02*
D03*
X-179Y1210D02*
D03*
X-319D02*
D03*
X140D02*
D03*
X0D02*
D03*
X140Y1370D02*
D03*
X0Y1370D02*
D03*
X451Y1210D02*
D03*
X311D02*
D03*
D21*
X370Y4430D02*
D03*
Y4570D02*
D03*
X2690Y3957D02*
D03*
Y3817D02*
D03*
X2530Y3815D02*
D03*
X2530Y3955D02*
D03*
X2293Y3952D02*
D03*
X2293Y3812D02*
D03*
X2135Y3810D02*
D03*
X2135Y3950D02*
D03*
X1512Y3805D02*
D03*
Y3945D02*
D03*
X1667Y3807D02*
D03*
Y3947D02*
D03*
X3170Y2730D02*
D03*
Y2870D02*
D03*
X3000D02*
D03*
Y2730D02*
D03*
X1543Y2765D02*
D03*
Y2625D02*
D03*
X261Y2500D02*
D03*
Y2360D02*
D03*
X451Y1460D02*
D03*
Y1600D02*
D03*
X1610Y1880D02*
D03*
Y1740D02*
D03*
X1800Y840D02*
D03*
Y980D02*
D03*
X5642Y5010D02*
D03*
Y4870D02*
D03*
X5642Y4675D02*
D03*
Y4535D02*
D03*
X6695Y6078D02*
D03*
X6695Y5938D02*
D03*
X6957Y6078D02*
D03*
Y5938D02*
D03*
X7643Y5870D02*
D03*
Y6010D02*
D03*
X7047Y4603D02*
D03*
X7047Y4462D02*
D03*
X7830Y4120D02*
D03*
Y3980D02*
D03*
X3310Y6120D02*
D03*
Y6260D02*
D03*
X3123Y6618D02*
D03*
Y6478D02*
D03*
X3120Y7160D02*
D03*
Y7020D02*
D03*
X1890Y7160D02*
D03*
Y7020D02*
D03*
X1890Y6620D02*
D03*
Y6480D02*
D03*
X2080Y6120D02*
D03*
Y6260D02*
D03*
X1343Y7850D02*
D03*
Y7710D02*
D03*
X1090Y7850D02*
D03*
Y7710D02*
D03*
X825Y7847D02*
D03*
Y7707D02*
D03*
X6380Y7888D02*
D03*
Y7748D02*
D03*
X5650Y7130D02*
D03*
X5650Y7270D02*
D03*
X5840Y7130D02*
D03*
Y7270D02*
D03*
X7120Y5935D02*
D03*
Y6075D02*
D03*
D22*
X2202Y4348D02*
D03*
Y4778D02*
D03*
D23*
X3795Y4935D02*
D03*
Y4885D02*
D03*
Y4835D02*
D03*
Y4785D02*
D03*
Y4735D02*
D03*
Y4685D02*
D03*
Y4635D02*
D03*
Y4585D02*
D03*
Y4535D02*
D03*
Y4485D02*
D03*
Y4435D02*
D03*
Y4385D02*
D03*
X2955D02*
D03*
Y4435D02*
D03*
Y4485D02*
D03*
Y4535D02*
D03*
Y4585D02*
D03*
Y4635D02*
D03*
Y4685D02*
D03*
Y4735D02*
D03*
Y4785D02*
D03*
Y4835D02*
D03*
Y4885D02*
D03*
Y4935D02*
D03*
D24*
X3100Y5080D02*
D03*
X3150D02*
D03*
X3200D02*
D03*
X3250D02*
D03*
X3300D02*
D03*
X3350D02*
D03*
X3400D02*
D03*
X3450D02*
D03*
X3500D02*
D03*
X3550D02*
D03*
X3600D02*
D03*
X3650D02*
D03*
Y4240D02*
D03*
X3600D02*
D03*
X3550D02*
D03*
X3500D02*
D03*
X3450D02*
D03*
X3400D02*
D03*
X3350D02*
D03*
X3300D02*
D03*
X3250D02*
D03*
X3200D02*
D03*
X3150D02*
D03*
X3100D02*
D03*
D25*
X3644Y3360D02*
D03*
X3772D02*
D03*
X3899D02*
D03*
X4026D02*
D03*
Y2820D02*
D03*
X3899D02*
D03*
X3772D02*
D03*
X3644D02*
D03*
X261Y1600D02*
D03*
X134D02*
D03*
X7D02*
D03*
X-120D02*
D03*
Y2140D02*
D03*
X7D02*
D03*
X134D02*
D03*
X261D02*
D03*
X1610Y980D02*
D03*
X1484D02*
D03*
X1356D02*
D03*
X1230D02*
D03*
Y1520D02*
D03*
X1356D02*
D03*
X1484D02*
D03*
X1610D02*
D03*
X3310Y7020D02*
D03*
X3437D02*
D03*
X3563D02*
D03*
X3690D02*
D03*
Y6480D02*
D03*
X3563D02*
D03*
X3437D02*
D03*
X3310D02*
D03*
X2080Y7020D02*
D03*
X2207D02*
D03*
X2334D02*
D03*
X2461D02*
D03*
Y6480D02*
D03*
X2334D02*
D03*
X2207D02*
D03*
X2080D02*
D03*
X4549Y7020D02*
D03*
X4676D02*
D03*
X4803D02*
D03*
X4931D02*
D03*
Y6480D02*
D03*
X4803D02*
D03*
X4676D02*
D03*
X4549D02*
D03*
X260Y6400D02*
D03*
X387D02*
D03*
X514D02*
D03*
X641D02*
D03*
X641Y5860D02*
D03*
X514D02*
D03*
X387D02*
D03*
X260D02*
D03*
D26*
X2445Y3018D02*
D03*
Y2891D02*
D03*
Y2764D02*
D03*
Y2637D02*
D03*
X1735D02*
D03*
X1735Y2764D02*
D03*
Y2891D02*
D03*
X1735Y3018D02*
D03*
D27*
X3399Y780D02*
D03*
X5160Y780D02*
D03*
X6919Y780D02*
D03*
D28*
X3526D02*
D03*
X3653D02*
D03*
X3781D02*
D03*
X3399Y1320D02*
D03*
X3526D02*
D03*
X3653D02*
D03*
X3781D02*
D03*
X5287Y780D02*
D03*
X5413Y780D02*
D03*
X5540D02*
D03*
X5160Y1320D02*
D03*
X5287D02*
D03*
X5413D02*
D03*
X5540D02*
D03*
X7046Y780D02*
D03*
X7174D02*
D03*
X7300D02*
D03*
X6919Y1320D02*
D03*
X7046D02*
D03*
X7174D02*
D03*
X7300D02*
D03*
D29*
X5847Y4855D02*
D03*
Y5175D02*
D03*
X7245Y4440D02*
D03*
Y4760D02*
D03*
D30*
X5642Y4166D02*
D03*
Y4369D02*
D03*
X6897Y5212D02*
D03*
Y5008D02*
D03*
X6380Y8261D02*
D03*
Y8058D02*
D03*
X1090Y8232D02*
D03*
Y8028D02*
D03*
X825Y8026D02*
D03*
Y8229D02*
D03*
X1343Y8028D02*
D03*
Y8232D02*
D03*
D31*
X6322Y4828D02*
D03*
Y5247D02*
D03*
X7670Y4408D02*
D03*
Y4828D02*
D03*
D32*
X5647Y5567D02*
D03*
X6047D02*
D03*
D33*
X6245Y5825D02*
D03*
X6245Y5730D02*
D03*
Y5920D02*
D03*
X6515D02*
D03*
X6515Y5825D02*
D03*
X6515Y5730D02*
D03*
D34*
X7380Y5805D02*
D03*
X7475D02*
D03*
X7285Y5805D02*
D03*
Y6075D02*
D03*
X7380Y6075D02*
D03*
X7475Y6075D02*
D03*
X5740Y6635D02*
D03*
X5835Y6635D02*
D03*
X5645D02*
D03*
X5645Y6905D02*
D03*
X5740Y6905D02*
D03*
X5835D02*
D03*
D35*
X7235Y5290D02*
D03*
X7665D02*
D03*
D36*
X6741Y4696D02*
D03*
X6839Y4794D02*
D03*
D37*
X6738Y3630D02*
D03*
X6528Y3535D02*
D03*
Y3725D02*
D03*
D38*
X8200Y5050D02*
D03*
X8760Y5050D02*
D03*
X8200Y5470D02*
D03*
X8760D02*
D03*
D39*
X8200Y6560D02*
D03*
Y6040D02*
D03*
D40*
X6870Y7080D02*
D03*
Y6560D02*
D03*
D41*
X7370Y6985D02*
D03*
Y6555D02*
D03*
D42*
X5420Y7719D02*
D03*
X5500Y7719D02*
D03*
X5980Y7719D02*
D03*
X6060Y7719D02*
D03*
D43*
X5915Y7719D02*
D03*
X5565D02*
D03*
X5865D02*
D03*
X5615Y7719D02*
D03*
X5815D02*
D03*
X5665Y7719D02*
D03*
X5765D02*
D03*
X5715D02*
D03*
D44*
X6378Y7235D02*
D03*
X6058D02*
D03*
D45*
X4941Y5445D02*
D03*
Y5835D02*
D03*
X4814D02*
D03*
Y5445D02*
D03*
X4687Y5835D02*
D03*
Y5445D02*
D03*
X4560Y5835D02*
D03*
Y5445D02*
D03*
X4433Y5835D02*
D03*
X4306D02*
D03*
X4179D02*
D03*
X4433Y5445D02*
D03*
X4306D02*
D03*
X4179D02*
D03*
M02*
