G04*
G04 #@! TF.GenerationSoftware,Altium Limited,Altium Designer,19.1.9 (167)*
G04*
G04 Layer_Physical_Order=2*
G04 Layer_Color=16711680*
%FSLAX42Y42*%
%MOMM*%
G71*
G01*
G75*
%ADD11C,0.60*%
%ADD14C,0.50*%
%ADD20R,0.85X0.85*%
%ADD21R,0.85X0.85*%
%ADD29R,1.60X1.20*%
%ADD85C,0.30*%
%ADD86C,0.50*%
%ADD91C,0.85*%
%ADD92C,1.60*%
%ADD93R,2.40X2.40*%
%ADD94C,2.40*%
%ADD95O,1.00X1.80*%
%ADD96O,1.00X2.10*%
%ADD97C,0.65*%
G04:AMPARAMS|DCode=98|XSize=1.52mm|YSize=1.52mm|CornerRadius=0.38mm|HoleSize=0mm|Usage=FLASHONLY|Rotation=90.000|XOffset=0mm|YOffset=0mm|HoleType=Round|Shape=RoundedRectangle|*
%AMROUNDEDRECTD98*
21,1,1.52,0.76,0,0,90.0*
21,1,0.76,1.52,0,0,90.0*
1,1,0.76,0.38,0.38*
1,1,0.76,0.38,-0.38*
1,1,0.76,-0.38,-0.38*
1,1,0.76,-0.38,0.38*
%
%ADD98ROUNDEDRECTD98*%
%ADD99C,2.10*%
%ADD100R,2.10X2.10*%
%ADD101C,6.00*%
G04:AMPARAMS|DCode=102|XSize=1.52mm|YSize=1.52mm|CornerRadius=0.38mm|HoleSize=0mm|Usage=FLASHONLY|Rotation=0.000|XOffset=0mm|YOffset=0mm|HoleType=Round|Shape=RoundedRectangle|*
%AMROUNDEDRECTD102*
21,1,1.52,0.76,0,0,0.0*
21,1,0.76,1.52,0,0,0.0*
1,1,0.76,0.38,-0.38*
1,1,0.76,-0.38,-0.38*
1,1,0.76,-0.38,0.38*
1,1,0.76,0.38,0.38*
%
%ADD102ROUNDEDRECTD102*%
%ADD103C,0.60*%
%ADD104C,1.00*%
%ADD105C,0.90*%
%ADD106C,1.27*%
%ADD107C,1.20*%
G36*
X8700Y8325D02*
Y8325D01*
X8712Y8323D01*
X8734Y8321D01*
X8767Y8311D01*
X8797Y8295D01*
X8823Y8273D01*
X8845Y8247D01*
X8861Y8217D01*
X8871Y8184D01*
X8875Y8150D01*
X8875Y8150D01*
X8875Y-137D01*
X8875Y-150D01*
X8873Y-162D01*
X8871Y-184D01*
X8861Y-217D01*
X8845Y-247D01*
X8823Y-273D01*
X8797Y-295D01*
X8767Y-311D01*
X8734Y-321D01*
X8712Y-323D01*
X8700Y-325D01*
X8700Y-325D01*
X8687Y-325D01*
X-200Y-325D01*
X-200Y-325D01*
Y-325D01*
X-212Y-323D01*
X-234Y-321D01*
X-267Y-311D01*
X-297Y-295D01*
X-323Y-273D01*
X-345Y-247D01*
X-361Y-217D01*
X-371Y-184D01*
X-373Y-162D01*
X-375Y-150D01*
X-375Y-150D01*
X-375Y-138D01*
X-375Y8150D01*
X-375Y8150D01*
X-371Y8184D01*
X-361Y8217D01*
X-345Y8247D01*
X-323Y8273D01*
X-297Y8295D01*
X-267Y8311D01*
X-234Y8321D01*
X-212Y8323D01*
X-200Y8325D01*
X-200Y8325D01*
X-187Y8325D01*
X8687Y8325D01*
X8700Y8325D01*
D02*
G37*
%LPC*%
G36*
X5928Y8112D02*
X5803D01*
Y7988D01*
X5829D01*
X5829Y7986D01*
X5829Y7984D01*
Y7969D01*
X5829Y7948D01*
X5828Y7941D01*
X5823Y7933D01*
X5819Y7915D01*
X5823Y7897D01*
X5833Y7883D01*
X5847Y7873D01*
X5865Y7869D01*
X5883Y7873D01*
X5897Y7883D01*
X5907Y7897D01*
X5911Y7915D01*
X5907Y7933D01*
X5903Y7939D01*
X5901Y7975D01*
X5910Y7988D01*
X5928D01*
Y8112D01*
D02*
G37*
G36*
X5628D02*
X5503D01*
Y7988D01*
X5529D01*
X5529Y7986D01*
X5529Y7984D01*
Y7969D01*
X5529Y7948D01*
X5528Y7941D01*
X5523Y7933D01*
X5519Y7915D01*
X5523Y7897D01*
X5533Y7883D01*
X5547Y7873D01*
X5565Y7869D01*
X5583Y7873D01*
X5597Y7883D01*
X5607Y7897D01*
X5611Y7915D01*
X5607Y7933D01*
X5603Y7939D01*
X5601Y7975D01*
X5610Y7988D01*
X5628D01*
Y8112D01*
D02*
G37*
G36*
X6029Y7880D02*
X6009Y7876D01*
X5991Y7864D01*
X5980Y7847D01*
X5975Y7826D01*
X5980Y7806D01*
X5991Y7789D01*
X6009Y7777D01*
X6029Y7773D01*
X6049Y7777D01*
X6067Y7789D01*
X6078Y7806D01*
X6083Y7826D01*
X6078Y7847D01*
X6067Y7864D01*
X6049Y7876D01*
X6029Y7880D01*
D02*
G37*
G36*
X5451D02*
X5431Y7876D01*
X5413Y7864D01*
X5402Y7847D01*
X5397Y7826D01*
X5402Y7806D01*
X5413Y7789D01*
X5431Y7777D01*
X5451Y7773D01*
X5471Y7777D01*
X5489Y7789D01*
X5500Y7806D01*
X5505Y7826D01*
X5500Y7847D01*
X5489Y7864D01*
X5471Y7876D01*
X5451Y7880D01*
D02*
G37*
G36*
X5075Y7795D02*
X4785D01*
Y7505D01*
X5075D01*
Y7795D01*
D02*
G37*
G36*
X3835Y7795D02*
X3545D01*
Y7505D01*
X3835D01*
Y7795D01*
D02*
G37*
G36*
X2605D02*
X2315D01*
Y7505D01*
X2605D01*
Y7795D01*
D02*
G37*
G36*
X4580Y7796D02*
X4542Y7791D01*
X4507Y7777D01*
X4477Y7753D01*
X4453Y7723D01*
X4439Y7688D01*
X4434Y7650D01*
X4439Y7612D01*
X4453Y7577D01*
X4477Y7547D01*
X4507Y7523D01*
X4542Y7509D01*
X4580Y7504D01*
X4618Y7509D01*
X4653Y7523D01*
X4683Y7547D01*
X4707Y7577D01*
X4721Y7612D01*
X4726Y7650D01*
X4721Y7688D01*
X4707Y7723D01*
X4683Y7753D01*
X4653Y7777D01*
X4618Y7791D01*
X4580Y7796D01*
D02*
G37*
G36*
X3340Y7796D02*
X3302Y7791D01*
X3267Y7777D01*
X3237Y7753D01*
X3213Y7723D01*
X3199Y7688D01*
X3194Y7650D01*
X3199Y7612D01*
X3213Y7577D01*
X3237Y7547D01*
X3267Y7523D01*
X3302Y7509D01*
X3340Y7504D01*
X3378Y7509D01*
X3413Y7523D01*
X3443Y7547D01*
X3467Y7577D01*
X3481Y7612D01*
X3486Y7650D01*
X3481Y7688D01*
X3467Y7723D01*
X3443Y7753D01*
X3413Y7777D01*
X3378Y7791D01*
X3340Y7796D01*
D02*
G37*
G36*
X2110D02*
X2072Y7791D01*
X2037Y7777D01*
X2007Y7753D01*
X1983Y7723D01*
X1969Y7688D01*
X1964Y7650D01*
X1969Y7612D01*
X1983Y7577D01*
X2007Y7547D01*
X2037Y7523D01*
X2072Y7509D01*
X2110Y7504D01*
X2148Y7509D01*
X2183Y7523D01*
X2213Y7547D01*
X2237Y7577D01*
X2251Y7612D01*
X2256Y7650D01*
X2251Y7688D01*
X2237Y7723D01*
X2213Y7753D01*
X2183Y7777D01*
X2148Y7791D01*
X2110Y7796D01*
D02*
G37*
G36*
X5978Y7558D02*
X5500D01*
X5482Y7556D01*
X5465Y7549D01*
X5450Y7537D01*
X5439Y7523D01*
X5432Y7506D01*
X5429Y7488D01*
X5432Y7469D01*
X5439Y7452D01*
X5450Y7438D01*
X5465Y7426D01*
X5482Y7419D01*
X5500Y7417D01*
X5978D01*
X5996Y7419D01*
X6013Y7426D01*
X6027Y7438D01*
X6039Y7452D01*
X6046Y7469D01*
X6048Y7488D01*
X6046Y7506D01*
X6039Y7523D01*
X6027Y7537D01*
X6013Y7549D01*
X5996Y7556D01*
X5978Y7558D01*
D02*
G37*
G36*
X6870Y7631D02*
X6837Y7628D01*
X6805Y7618D01*
X6775Y7602D01*
X6749Y7581D01*
X6728Y7555D01*
X6712Y7525D01*
X6702Y7493D01*
X6699Y7460D01*
X6702Y7427D01*
X6712Y7395D01*
X6728Y7365D01*
X6749Y7339D01*
X6775Y7318D01*
X6805Y7302D01*
X6837Y7292D01*
X6870Y7289D01*
X6903Y7292D01*
X6935Y7302D01*
X6965Y7318D01*
X6991Y7339D01*
X7012Y7365D01*
X7028Y7395D01*
X7038Y7427D01*
X7041Y7460D01*
X7038Y7493D01*
X7028Y7525D01*
X7012Y7555D01*
X6991Y7581D01*
X6965Y7602D01*
X6935Y7618D01*
X6903Y7628D01*
X6870Y7631D01*
D02*
G37*
G36*
X785Y7465D02*
X495D01*
Y7175D01*
X785D01*
Y7465D01*
D02*
G37*
G36*
X290Y7466D02*
X252Y7461D01*
X217Y7447D01*
X187Y7423D01*
X163Y7393D01*
X149Y7358D01*
X144Y7320D01*
X149Y7282D01*
X163Y7247D01*
X187Y7217D01*
X217Y7193D01*
X252Y7179D01*
X290Y7174D01*
X328Y7179D01*
X363Y7193D01*
X393Y7217D01*
X417Y7247D01*
X431Y7282D01*
X436Y7320D01*
X431Y7358D01*
X417Y7393D01*
X393Y7423D01*
X363Y7447D01*
X328Y7461D01*
X290Y7466D01*
D02*
G37*
G36*
X2334Y6322D02*
X2314Y6319D01*
X2297Y6308D01*
X2286Y6291D01*
X2283Y6272D01*
X2286Y6252D01*
X2297Y6235D01*
X2314Y6224D01*
X2327Y6222D01*
X2357Y6195D01*
X2479Y6073D01*
X2492Y6059D01*
X2500Y6050D01*
X2502Y6047D01*
X2502Y6046D01*
X2505Y6030D01*
X2516Y6014D01*
X2533Y6003D01*
X2552Y5999D01*
X2572Y6003D01*
X2589Y6014D01*
X2600Y6030D01*
X2603Y6050D01*
X2600Y6070D01*
X2589Y6086D01*
X2572Y6097D01*
X2556Y6100D01*
X2556Y6100D01*
X2527Y6126D01*
X2410Y6243D01*
X2399Y6255D01*
X2390Y6266D01*
X2387Y6269D01*
X2384Y6273D01*
X2384Y6273D01*
X2381Y6291D01*
X2370Y6308D01*
X2353Y6319D01*
X2334Y6322D01*
D02*
G37*
G36*
X3312Y6046D02*
X3293Y6042D01*
X3276Y6031D01*
X3265Y6015D01*
X3262Y5995D01*
X3265Y5975D01*
X3276Y5959D01*
X3293Y5948D01*
X3309Y5945D01*
X3309Y5945D01*
X3338Y5919D01*
X3474Y5783D01*
X3481Y5775D01*
X3483Y5768D01*
X3494Y5751D01*
X3510Y5740D01*
X3530Y5737D01*
X3550Y5740D01*
X3566Y5751D01*
X3577Y5768D01*
X3581Y5788D01*
X3577Y5807D01*
X3566Y5824D01*
X3550Y5835D01*
X3530Y5838D01*
X3527Y5838D01*
X3527Y5838D01*
X3525Y5839D01*
X3522Y5841D01*
X3518Y5843D01*
X3513Y5847D01*
X3496Y5862D01*
X3386Y5972D01*
X3373Y5986D01*
X3365Y5995D01*
X3363Y5998D01*
X3363Y5999D01*
X3360Y6015D01*
X3349Y6031D01*
X3332Y6042D01*
X3312Y6046D01*
D02*
G37*
G36*
X8197Y5736D02*
X8173Y5733D01*
X8150Y5723D01*
X8145Y5720D01*
X8085Y5716D01*
X8070Y5716D01*
X8068Y5716D01*
X7660D01*
X7658Y5716D01*
X7602Y5717D01*
X7585Y5718D01*
X7584Y5718D01*
X7578Y5723D01*
X7555Y5733D01*
X7530Y5736D01*
X7505Y5733D01*
X7482Y5723D01*
X7462Y5708D01*
X7447Y5688D01*
X7437Y5665D01*
X7434Y5640D01*
X7437Y5615D01*
X7447Y5592D01*
X7462Y5572D01*
X7482Y5557D01*
X7505Y5547D01*
X7530Y5544D01*
X7555Y5547D01*
X7578Y5557D01*
X7582Y5560D01*
X7642Y5564D01*
X7658Y5564D01*
X7659Y5564D01*
X8068D01*
X8069Y5564D01*
X8126Y5563D01*
X8142Y5562D01*
X8144Y5562D01*
X8150Y5557D01*
X8173Y5547D01*
X8197Y5544D01*
X8222Y5547D01*
X8245Y5557D01*
X8265Y5572D01*
X8280Y5592D01*
X8290Y5615D01*
X8293Y5640D01*
X8290Y5665D01*
X8280Y5688D01*
X8265Y5708D01*
X8245Y5723D01*
X8222Y5733D01*
X8197Y5736D01*
D02*
G37*
G36*
X3048Y5877D02*
X2972D01*
X2949Y5873D01*
X2930Y5860D01*
X2917Y5841D01*
X2913Y5818D01*
Y5816D01*
X2912Y5816D01*
X2910Y5816D01*
X900D01*
X886Y5813D01*
X875Y5805D01*
X393Y5324D01*
X379Y5310D01*
X370Y5303D01*
X367Y5301D01*
X366Y5300D01*
X350Y5297D01*
X334Y5286D01*
X323Y5270D01*
X319Y5250D01*
X323Y5230D01*
X334Y5214D01*
X350Y5203D01*
X370Y5199D01*
X390Y5203D01*
X406Y5214D01*
X417Y5230D01*
X420Y5246D01*
X420Y5246D01*
X446Y5276D01*
X915Y5744D01*
X2910D01*
X2912Y5744D01*
X2913Y5744D01*
Y5742D01*
X2917Y5719D01*
X2930Y5700D01*
X2949Y5687D01*
X2972Y5683D01*
X3048D01*
X3071Y5687D01*
X3090Y5700D01*
X3103Y5719D01*
X3107Y5742D01*
Y5818D01*
X3103Y5841D01*
X3090Y5860D01*
X3071Y5873D01*
X3048Y5877D01*
D02*
G37*
G36*
X1650Y5653D02*
X1630Y5650D01*
X1614Y5639D01*
X1603Y5622D01*
X1599Y5603D01*
X1603Y5583D01*
X1614Y5566D01*
X1630Y5555D01*
X1650Y5552D01*
X1670Y5555D01*
X1683Y5564D01*
X1683Y5564D01*
X1722Y5567D01*
X3150D01*
X3151Y5566D01*
X3159Y5557D01*
X3164Y5552D01*
X3168Y5533D01*
X3179Y5516D01*
X3195Y5505D01*
X3215Y5502D01*
X3235Y5505D01*
X3251Y5516D01*
X3262Y5533D01*
X3266Y5553D01*
X3262Y5572D01*
X3251Y5589D01*
X3235Y5600D01*
X3217Y5603D01*
X3199Y5619D01*
X3190Y5628D01*
X3179Y5635D01*
X3165Y5638D01*
X1718D01*
X1699Y5639D01*
X1687Y5640D01*
X1684Y5641D01*
X1683Y5641D01*
X1670Y5650D01*
X1650Y5653D01*
D02*
G37*
G36*
X1892Y5536D02*
X1873Y5532D01*
X1856Y5521D01*
X1845Y5505D01*
X1842Y5485D01*
X1845Y5465D01*
X1856Y5449D01*
X1873Y5438D01*
X1892Y5434D01*
X1912Y5438D01*
X1925Y5447D01*
X1925Y5447D01*
X1964Y5449D01*
X3123D01*
X3132Y5440D01*
X3132Y5440D01*
X3135Y5420D01*
X3146Y5404D01*
X3163Y5393D01*
X3183Y5389D01*
X3202Y5393D01*
X3219Y5404D01*
X3230Y5420D01*
X3233Y5440D01*
X3230Y5460D01*
X3219Y5476D01*
X3202Y5487D01*
X3183Y5491D01*
X3182Y5491D01*
X3163Y5510D01*
X3151Y5518D01*
X3138Y5521D01*
X1961D01*
X1941Y5521D01*
X1930Y5522D01*
X1926Y5523D01*
X1925Y5523D01*
X1912Y5532D01*
X1892Y5536D01*
D02*
G37*
G36*
X4192Y5131D02*
X4173Y5127D01*
X4156Y5116D01*
X4145Y5100D01*
X4142Y5080D01*
X4145Y5060D01*
X4156Y5044D01*
X4173Y5033D01*
X4189Y5030D01*
X4189Y5030D01*
X4218Y5004D01*
X4249Y4973D01*
Y4738D01*
X4249Y4719D01*
X4248Y4707D01*
X4247Y4704D01*
X4247Y4703D01*
X4238Y4690D01*
X4234Y4670D01*
X4238Y4650D01*
X4249Y4634D01*
X4265Y4623D01*
X4285Y4619D01*
X4305Y4623D01*
X4321Y4634D01*
X4332Y4650D01*
X4336Y4670D01*
X4332Y4690D01*
X4323Y4703D01*
X4323Y4703D01*
X4321Y4742D01*
Y4988D01*
X4318Y5001D01*
X4310Y5013D01*
X4266Y5057D01*
X4253Y5071D01*
X4245Y5080D01*
X4243Y5083D01*
X4243Y5084D01*
X4240Y5100D01*
X4229Y5116D01*
X4212Y5127D01*
X4192Y5131D01*
D02*
G37*
G36*
X5065Y6861D02*
X1627D01*
X1601Y6857D01*
X1577Y6847D01*
X1556Y6831D01*
X966Y6241D01*
X514D01*
X487Y6237D01*
X463Y6227D01*
X442Y6211D01*
X426Y6190D01*
X416Y6166D01*
X413Y6140D01*
X416Y6114D01*
X426Y6090D01*
X442Y6069D01*
X463Y6053D01*
X487Y6043D01*
X514Y6039D01*
X1007D01*
X1034Y6043D01*
X1058Y6053D01*
X1079Y6069D01*
X1669Y6659D01*
X5023D01*
X5139Y6543D01*
Y4862D01*
X5138Y4844D01*
X5136Y4829D01*
X5132Y4818D01*
X5127Y4808D01*
X5121Y4801D01*
X5114Y4796D01*
X5105Y4791D01*
X5093Y4787D01*
X5078Y4784D01*
X5060Y4783D01*
X4872D01*
X4846Y4780D01*
X4822Y4770D01*
X4801Y4754D01*
X4638Y4591D01*
X3711D01*
Y4960D01*
X3708Y4976D01*
X3699Y4989D01*
X3686Y4998D01*
X3670Y5001D01*
X3080D01*
X3064Y4998D01*
X3051Y4989D01*
X3042Y4976D01*
X3040Y4962D01*
X3038D01*
Y4797D01*
X3039D01*
Y4733D01*
X3038D01*
Y4567D01*
X3039D01*
Y4522D01*
X3038D01*
Y4358D01*
X3040D01*
X3042Y4344D01*
X3051Y4331D01*
X3064Y4322D01*
X3080Y4319D01*
X3574D01*
Y3768D01*
X2534D01*
X2530Y3768D01*
X2526Y3768D01*
X2141D01*
X2138Y3768D01*
X2134Y3768D01*
X1927D01*
X1909Y3765D01*
X1892Y3758D01*
X1877Y3747D01*
X1493Y3362D01*
X1481Y3348D01*
X1474Y3331D01*
X1472Y3312D01*
Y2991D01*
X959D01*
X441Y3509D01*
Y4200D01*
X438Y4218D01*
X431Y4235D01*
X420Y4250D01*
X405Y4261D01*
X388Y4268D01*
X370Y4271D01*
X352Y4268D01*
X335Y4261D01*
X320Y4250D01*
X309Y4235D01*
X302Y4218D01*
X299Y4200D01*
Y3480D01*
X302Y3462D01*
X309Y3445D01*
X320Y3430D01*
X880Y2870D01*
X895Y2859D01*
X912Y2852D01*
X930Y2849D01*
X1543D01*
X1561Y2852D01*
X1578Y2859D01*
X1592Y2870D01*
X1604Y2885D01*
X1611Y2902D01*
X1613Y2920D01*
Y3283D01*
X1956Y3626D01*
X4266D01*
X4305Y3588D01*
X4320Y3576D01*
X4337Y3569D01*
X4355Y3567D01*
X4373Y3569D01*
X4390Y3576D01*
X4405Y3588D01*
X4416Y3602D01*
X4423Y3619D01*
X4426Y3638D01*
X4423Y3656D01*
X4416Y3673D01*
X4405Y3687D01*
X4345Y3747D01*
X4331Y3758D01*
X4314Y3765D01*
X4296Y3768D01*
X3715D01*
Y4385D01*
X3718Y4389D01*
X3958D01*
Y4385D01*
X4197D01*
Y4389D01*
X4680D01*
X4706Y4393D01*
X4730Y4403D01*
X4751Y4419D01*
X4914Y4582D01*
X5603D01*
X5630Y4578D01*
X5657Y4582D01*
X5702D01*
X5702Y1121D01*
X5698Y1111D01*
X5694Y1085D01*
X5698Y1059D01*
X5708Y1035D01*
X5724Y1014D01*
X5745Y998D01*
X5769Y988D01*
X5795Y984D01*
X5821Y988D01*
X5845Y998D01*
X5866Y1014D01*
X5874Y1021D01*
X5890Y1042D01*
X5900Y1066D01*
X5903Y1092D01*
X5903Y4656D01*
X5907Y4683D01*
X5903Y4710D01*
X5893Y4735D01*
X5876Y4756D01*
X5855Y4773D01*
X5830Y4783D01*
X5803Y4787D01*
X5776Y4783D01*
X5657D01*
X5630Y4787D01*
X5603Y4783D01*
X5420D01*
X5402Y4784D01*
X5387Y4787D01*
X5375Y4791D01*
X5366Y4796D01*
X5359Y4801D01*
X5353Y4808D01*
X5348Y4818D01*
X5344Y4829D01*
X5342Y4844D01*
X5341Y4862D01*
Y6585D01*
X5337Y6611D01*
X5327Y6635D01*
X5311Y6656D01*
X5136Y6831D01*
X5115Y6847D01*
X5091Y6857D01*
X5065Y6861D01*
D02*
G37*
G36*
X2927Y3326D02*
X2908Y3322D01*
X2895Y3313D01*
X2895Y3313D01*
X2856Y3311D01*
X2581D01*
X2561Y3311D01*
X2550Y3312D01*
X2546Y3313D01*
X2545Y3313D01*
X2532Y3322D01*
X2512Y3326D01*
X2493Y3322D01*
X2476Y3311D01*
X2465Y3295D01*
X2462Y3275D01*
X2465Y3255D01*
X2476Y3239D01*
X2491Y3230D01*
X2492Y3224D01*
Y3221D01*
X2491Y3215D01*
X2476Y3206D01*
X2465Y3190D01*
X2462Y3170D01*
X2465Y3150D01*
X2476Y3134D01*
X2493Y3123D01*
X2512Y3119D01*
X2532Y3123D01*
X2545Y3132D01*
X2545Y3132D01*
X2584Y3134D01*
X2627D01*
X2646Y3134D01*
X2658Y3133D01*
X2661Y3132D01*
X2662Y3132D01*
X2675Y3123D01*
X2695Y3119D01*
X2715Y3123D01*
X2731Y3134D01*
X2742Y3150D01*
X2746Y3170D01*
X2742Y3190D01*
X2731Y3206D01*
X2715Y3217D01*
X2695Y3221D01*
X2675Y3217D01*
X2662Y3208D01*
X2662Y3208D01*
X2623Y3206D01*
X2581D01*
X2561Y3206D01*
X2550Y3207D01*
X2546Y3208D01*
X2545Y3208D01*
X2534Y3215D01*
X2533Y3221D01*
Y3224D01*
X2534Y3230D01*
X2545Y3237D01*
X2545Y3237D01*
X2584Y3239D01*
X2859D01*
X2879Y3239D01*
X2890Y3238D01*
X2894Y3237D01*
X2895Y3237D01*
X2908Y3228D01*
X2927Y3224D01*
X2947Y3228D01*
X2964Y3239D01*
X2975Y3255D01*
X2978Y3275D01*
X2975Y3295D01*
X2964Y3311D01*
X2947Y3322D01*
X2927Y3326D01*
D02*
G37*
G36*
X7830Y3378D02*
X7804Y3375D01*
X7780Y3365D01*
X7759Y3349D01*
X7743Y3328D01*
X7733Y3304D01*
X7729Y3278D01*
X7733Y3251D01*
X7743Y3227D01*
X7759Y3206D01*
X7780Y3190D01*
X7804Y3180D01*
X7830Y3177D01*
X7856Y3180D01*
X7880Y3190D01*
X7901Y3206D01*
X7917Y3227D01*
X7927Y3251D01*
X7931Y3278D01*
X7927Y3304D01*
X7917Y3328D01*
X7901Y3349D01*
X7880Y3365D01*
X7856Y3375D01*
X7830Y3378D01*
D02*
G37*
G36*
X7070D02*
X7044Y3375D01*
X7020Y3365D01*
X6999Y3349D01*
X6983Y3328D01*
X6973Y3304D01*
X6969Y3278D01*
X6973Y3251D01*
X6983Y3227D01*
X6999Y3206D01*
X7020Y3190D01*
X7044Y3180D01*
X7070Y3177D01*
X7096Y3180D01*
X7120Y3190D01*
X7141Y3206D01*
X7157Y3227D01*
X7167Y3251D01*
X7171Y3278D01*
X7167Y3304D01*
X7157Y3328D01*
X7141Y3349D01*
X7120Y3365D01*
X7096Y3375D01*
X7070Y3378D01*
D02*
G37*
G36*
X3091Y3197D02*
X3014D01*
X2992Y3193D01*
X2973Y3180D01*
X2960Y3161D01*
X2955Y3138D01*
Y3062D01*
X2960Y3039D01*
X2973Y3020D01*
X2992Y3007D01*
X3014Y3003D01*
X3091D01*
X3113Y3007D01*
X3132Y3020D01*
X3145Y3039D01*
X3150Y3062D01*
Y3138D01*
X3145Y3161D01*
X3132Y3180D01*
X3113Y3193D01*
X3091Y3197D01*
D02*
G37*
G36*
X465Y2733D02*
X445Y2730D01*
X432Y2721D01*
X432Y2721D01*
X393Y2718D01*
X175D01*
X161Y2715D01*
X150Y2708D01*
X135Y2693D01*
X135Y2693D01*
X115Y2690D01*
X99Y2679D01*
X88Y2662D01*
X84Y2642D01*
X88Y2623D01*
X99Y2606D01*
X115Y2595D01*
X135Y2592D01*
X155Y2595D01*
X171Y2606D01*
X182Y2623D01*
X186Y2642D01*
X197Y2647D01*
X397D01*
X416Y2646D01*
X428Y2645D01*
X431Y2644D01*
X432Y2644D01*
X445Y2635D01*
X465Y2632D01*
X485Y2635D01*
X501Y2646D01*
X512Y2663D01*
X516Y2683D01*
X512Y2702D01*
X501Y2719D01*
X485Y2730D01*
X465Y2733D01*
D02*
G37*
G36*
X1917Y2031D02*
X1898Y2027D01*
X1885Y2018D01*
X1885Y2018D01*
X1846Y2016D01*
X1545D01*
X1531Y2013D01*
X1520Y2005D01*
X1504Y1989D01*
X1492Y1979D01*
X1483Y1971D01*
X1480Y1969D01*
X1479Y1969D01*
X1464Y1966D01*
X1447Y1955D01*
X1436Y1938D01*
X1433Y1918D01*
X1436Y1899D01*
X1447Y1882D01*
X1464Y1871D01*
X1484Y1868D01*
X1503Y1871D01*
X1520Y1882D01*
X1531Y1899D01*
X1534Y1914D01*
X1534Y1914D01*
X1560Y1944D01*
X1849D01*
X1869Y1944D01*
X1880Y1943D01*
X1884Y1942D01*
X1885Y1942D01*
X1898Y1933D01*
X1917Y1929D01*
X1937Y1933D01*
X1954Y1944D01*
X1965Y1960D01*
X1968Y1980D01*
X1965Y2000D01*
X1954Y2016D01*
X1937Y2027D01*
X1917Y2031D01*
D02*
G37*
G36*
X25Y815D02*
X-264D01*
Y525D01*
X25D01*
Y815D01*
D02*
G37*
G36*
X231Y816D02*
X193Y811D01*
X157Y797D01*
X127Y773D01*
X104Y743D01*
X89Y708D01*
X84Y670D01*
X89Y632D01*
X104Y597D01*
X127Y567D01*
X157Y543D01*
X193Y529D01*
X231Y524D01*
X268Y529D01*
X304Y543D01*
X334Y567D01*
X357Y597D01*
X372Y632D01*
X377Y670D01*
X372Y708D01*
X357Y743D01*
X334Y773D01*
X304Y797D01*
X268Y811D01*
X231Y816D01*
D02*
G37*
G36*
X7495Y502D02*
X7457Y497D01*
X7422Y483D01*
X7392Y459D01*
X7368Y429D01*
X7354Y394D01*
X7349Y356D01*
X7354Y318D01*
X7368Y283D01*
X7392Y253D01*
X7422Y229D01*
X7457Y215D01*
X7495Y210D01*
X7533Y215D01*
X7568Y229D01*
X7598Y253D01*
X7622Y283D01*
X7636Y318D01*
X7641Y356D01*
X7636Y394D01*
X7622Y429D01*
X7598Y459D01*
X7568Y483D01*
X7533Y497D01*
X7495Y502D01*
D02*
G37*
G36*
X5735D02*
X5697Y497D01*
X5662Y483D01*
X5632Y459D01*
X5608Y429D01*
X5594Y394D01*
X5589Y356D01*
X5594Y318D01*
X5608Y283D01*
X5632Y253D01*
X5662Y229D01*
X5697Y215D01*
X5735Y210D01*
X5773Y215D01*
X5808Y229D01*
X5838Y253D01*
X5862Y283D01*
X5876Y318D01*
X5881Y356D01*
X5876Y394D01*
X5862Y429D01*
X5838Y459D01*
X5808Y483D01*
X5773Y497D01*
X5735Y502D01*
D02*
G37*
G36*
X4855D02*
X4817Y497D01*
X4782Y483D01*
X4752Y459D01*
X4728Y429D01*
X4714Y394D01*
X4709Y356D01*
X4714Y318D01*
X4728Y283D01*
X4752Y253D01*
X4782Y229D01*
X4817Y215D01*
X4855Y210D01*
X4893Y215D01*
X4928Y229D01*
X4958Y253D01*
X4982Y283D01*
X4996Y318D01*
X5001Y356D01*
X4996Y394D01*
X4982Y429D01*
X4958Y459D01*
X4928Y483D01*
X4893Y497D01*
X4855Y502D01*
D02*
G37*
G36*
X6615Y502D02*
X6577Y497D01*
X6542Y483D01*
X6512Y459D01*
X6488Y429D01*
X6474Y394D01*
X6469Y356D01*
X6474Y318D01*
X6488Y283D01*
X6512Y253D01*
X6542Y229D01*
X6577Y215D01*
X6615Y210D01*
X6653Y215D01*
X6688Y229D01*
X6718Y253D01*
X6742Y283D01*
X6756Y318D01*
X6761Y356D01*
X6756Y394D01*
X6742Y429D01*
X6718Y459D01*
X6688Y483D01*
X6653Y497D01*
X6615Y502D01*
D02*
G37*
G36*
X3975D02*
X3937Y497D01*
X3902Y483D01*
X3872Y459D01*
X3848Y429D01*
X3834Y394D01*
X3829Y356D01*
X3834Y318D01*
X3848Y283D01*
X3872Y253D01*
X3902Y229D01*
X3937Y215D01*
X3975Y210D01*
X4013Y215D01*
X4048Y229D01*
X4078Y253D01*
X4102Y283D01*
X4116Y318D01*
X4121Y356D01*
X4116Y394D01*
X4102Y429D01*
X4078Y459D01*
X4048Y483D01*
X4013Y497D01*
X3975Y502D01*
D02*
G37*
G36*
X3095Y502D02*
X3057Y497D01*
X3022Y483D01*
X2992Y459D01*
X2968Y429D01*
X2954Y394D01*
X2949Y356D01*
X2954Y318D01*
X2968Y283D01*
X2992Y253D01*
X3022Y229D01*
X3057Y215D01*
X3095Y210D01*
X3133Y215D01*
X3168Y229D01*
X3198Y253D01*
X3222Y283D01*
X3236Y318D01*
X3241Y356D01*
X3236Y394D01*
X3222Y429D01*
X3198Y459D01*
X3168Y483D01*
X3133Y497D01*
X3095Y502D01*
D02*
G37*
G36*
X1375Y495D02*
X1085D01*
Y205D01*
X1375D01*
Y495D01*
D02*
G37*
G36*
X1580Y496D02*
X1542Y491D01*
X1507Y477D01*
X1477Y453D01*
X1453Y423D01*
X1439Y388D01*
X1434Y350D01*
X1439Y312D01*
X1453Y277D01*
X1477Y247D01*
X1507Y223D01*
X1542Y209D01*
X1580Y204D01*
X1618Y209D01*
X1653Y223D01*
X1683Y247D01*
X1707Y277D01*
X1721Y312D01*
X1726Y350D01*
X1721Y388D01*
X1707Y423D01*
X1683Y453D01*
X1653Y477D01*
X1618Y491D01*
X1580Y496D01*
D02*
G37*
G36*
X7300Y511D02*
X6990D01*
Y201D01*
X7300D01*
Y511D01*
D02*
G37*
G36*
X5540D02*
X5230D01*
Y201D01*
X5540D01*
Y511D01*
D02*
G37*
G36*
X4660D02*
X4350D01*
Y201D01*
X4660D01*
Y511D01*
D02*
G37*
G36*
X6420Y511D02*
X6110D01*
Y201D01*
X6420D01*
Y511D01*
D02*
G37*
G36*
X3780Y511D02*
X3470D01*
Y201D01*
X3780D01*
Y511D01*
D02*
G37*
G36*
X2900D02*
X2590D01*
Y201D01*
X2900D01*
Y511D01*
D02*
G37*
%LPD*%
G36*
X5892Y8008D02*
X5890Y8007D01*
X5887Y8005D01*
X5885Y8003D01*
X5884Y8000D01*
X5882Y7997D01*
X5881Y7993D01*
X5881Y7989D01*
X5880Y7984D01*
X5880Y7983D01*
X5883Y7933D01*
X5847D01*
X5848Y7934D01*
X5848Y7936D01*
X5849Y7939D01*
X5849Y7947D01*
X5850Y7981D01*
X5850Y7984D01*
X5849Y7989D01*
X5849Y7993D01*
X5848Y7997D01*
X5846Y8000D01*
X5845Y8003D01*
X5843Y8005D01*
X5840Y8007D01*
X5838Y8008D01*
X5835Y8008D01*
X5895D01*
X5892Y8008D01*
D02*
G37*
G36*
X5592D02*
X5590Y8007D01*
X5587Y8005D01*
X5585Y8003D01*
X5584Y8000D01*
X5582Y7997D01*
X5581Y7993D01*
X5581Y7989D01*
X5580Y7984D01*
X5580Y7983D01*
X5583Y7933D01*
X5547D01*
X5548Y7934D01*
X5548Y7936D01*
X5549Y7939D01*
X5549Y7947D01*
X5550Y7981D01*
X5550Y7984D01*
X5549Y7989D01*
X5549Y7993D01*
X5548Y7997D01*
X5546Y8000D01*
X5545Y8003D01*
X5543Y8005D01*
X5540Y8007D01*
X5538Y8008D01*
X5535Y8008D01*
X5595D01*
X5592Y8008D01*
D02*
G37*
G36*
X2364Y6269D02*
X2365Y6266D01*
X2367Y6262D01*
X2370Y6258D01*
X2374Y6253D01*
X2383Y6241D01*
X2404Y6219D01*
X2382Y6200D01*
X2374Y6208D01*
X2337Y6240D01*
X2335Y6241D01*
X2333Y6242D01*
X2363Y6271D01*
X2364Y6269D01*
D02*
G37*
G36*
X2510Y6114D02*
X2544Y6084D01*
X2548Y6082D01*
X2550Y6080D01*
X2553Y6080D01*
X2523Y6050D01*
X2522Y6052D01*
X2521Y6055D01*
X2519Y6058D01*
X2516Y6062D01*
X2508Y6072D01*
X2489Y6092D01*
X2481Y6100D01*
X2502Y6121D01*
X2510Y6114D01*
D02*
G37*
G36*
X3343Y5993D02*
X3344Y5990D01*
X3346Y5987D01*
X3349Y5983D01*
X3357Y5973D01*
X3376Y5953D01*
X3384Y5945D01*
X3363Y5924D01*
X3355Y5931D01*
X3321Y5961D01*
X3317Y5963D01*
X3315Y5965D01*
X3312Y5965D01*
X3342Y5995D01*
X3343Y5993D01*
D02*
G37*
G36*
X3480Y5848D02*
X3501Y5831D01*
X3506Y5826D01*
X3512Y5823D01*
X3516Y5820D01*
X3521Y5819D01*
X3524Y5818D01*
X3528Y5817D01*
X3500Y5785D01*
X3500Y5786D01*
X3498Y5787D01*
X3479Y5807D01*
X3458Y5829D01*
X3473Y5856D01*
X3480Y5848D01*
D02*
G37*
G36*
X8166Y5669D02*
X8167Y5670D01*
Y5610D01*
X8166Y5611D01*
Y5608D01*
X8164Y5609D01*
X8160Y5611D01*
X8154Y5612D01*
X8147Y5613D01*
X8128Y5614D01*
X8070Y5615D01*
X8070Y5665D01*
X8087Y5665D01*
X8160Y5669D01*
X8164Y5671D01*
X8166Y5672D01*
Y5669D01*
D02*
G37*
G36*
X7564Y5671D02*
X7568Y5669D01*
X7573Y5668D01*
X7580Y5667D01*
X7600Y5666D01*
X7657Y5665D01*
Y5615D01*
X7640Y5615D01*
X7568Y5611D01*
X7564Y5609D01*
X7562Y5608D01*
Y5672D01*
X7564Y5671D01*
D02*
G37*
G36*
X2934Y5750D02*
X2934Y5753D01*
X2933Y5755D01*
X2931Y5758D01*
X2929Y5760D01*
X2927Y5761D01*
X2923Y5763D01*
X2919Y5764D01*
X2915Y5764D01*
X2910Y5765D01*
X2904Y5765D01*
Y5795D01*
X2910Y5795D01*
X2915Y5796D01*
X2919Y5796D01*
X2923Y5797D01*
X2927Y5799D01*
X2929Y5800D01*
X2931Y5802D01*
X2933Y5805D01*
X2934Y5807D01*
X2934Y5810D01*
Y5750D01*
D02*
G37*
G36*
X441Y5300D02*
X434Y5292D01*
X404Y5258D01*
X402Y5255D01*
X400Y5252D01*
X400Y5250D01*
X370Y5280D01*
X372Y5280D01*
X375Y5282D01*
X378Y5284D01*
X382Y5287D01*
X392Y5295D01*
X412Y5314D01*
X420Y5321D01*
X441Y5300D01*
D02*
G37*
G36*
X1673Y5623D02*
X1676Y5621D01*
X1680Y5621D01*
X1685Y5620D01*
X1698Y5618D01*
X1725Y5618D01*
X1736Y5617D01*
Y5588D01*
X1725Y5587D01*
X1680Y5584D01*
X1676Y5584D01*
X1673Y5582D01*
X1671Y5581D01*
Y5624D01*
X1673Y5623D01*
D02*
G37*
G36*
X3182Y5607D02*
X3208Y5583D01*
X3210Y5582D01*
X3211Y5582D01*
X3185Y5556D01*
X3185Y5557D01*
X3184Y5559D01*
X3183Y5561D01*
X3181Y5564D01*
X3174Y5571D01*
X3154Y5592D01*
X3176Y5613D01*
X3182Y5607D01*
D02*
G37*
G36*
X1915Y5505D02*
X1918Y5504D01*
X1922Y5503D01*
X1927Y5502D01*
X1940Y5501D01*
X1967Y5500D01*
X1978Y5500D01*
Y5470D01*
X1967Y5470D01*
X1922Y5467D01*
X1918Y5466D01*
X1915Y5465D01*
X1914Y5464D01*
Y5506D01*
X1915Y5505D01*
D02*
G37*
G36*
X3175Y5469D02*
X3153Y5448D01*
X3153Y5448D01*
X3149Y5452D01*
X3127Y5474D01*
X3148Y5496D01*
X3175Y5469D01*
D02*
G37*
G36*
X4223Y5078D02*
X4224Y5075D01*
X4226Y5072D01*
X4229Y5068D01*
X4237Y5058D01*
X4256Y5038D01*
X4264Y5030D01*
X4243Y5009D01*
X4235Y5016D01*
X4201Y5046D01*
X4197Y5048D01*
X4195Y5050D01*
X4192Y5050D01*
X4222Y5080D01*
X4223Y5078D01*
D02*
G37*
G36*
X4300Y4745D02*
X4303Y4700D01*
X4304Y4696D01*
X4305Y4693D01*
X4306Y4691D01*
X4264D01*
X4265Y4693D01*
X4266Y4696D01*
X4267Y4700D01*
X4268Y4705D01*
X4269Y4718D01*
X4270Y4745D01*
X4270Y4756D01*
X4300D01*
X4300Y4745D01*
D02*
G37*
G36*
X5301Y4840D02*
X5305Y4819D01*
X5311Y4801D01*
X5319Y4786D01*
X5330Y4772D01*
X5343Y4762D01*
X5359Y4753D01*
X5377Y4747D01*
X5397Y4744D01*
X5420Y4742D01*
X5240Y4622D01*
X5060Y4742D01*
X5083Y4744D01*
X5103Y4747D01*
X5121Y4753D01*
X5137Y4762D01*
X5150Y4772D01*
X5161Y4786D01*
X5169Y4801D01*
X5175Y4819D01*
X5179Y4840D01*
X5180Y4862D01*
X5300D01*
X5301Y4840D01*
D02*
G37*
G36*
X3670Y4360D02*
X3080D01*
Y4960D01*
X3670D01*
Y4360D01*
D02*
G37*
G36*
X2906Y3254D02*
X2905Y3255D01*
X2902Y3256D01*
X2898Y3257D01*
X2893Y3258D01*
X2880Y3259D01*
X2853Y3260D01*
X2842Y3260D01*
Y3290D01*
X2853Y3290D01*
X2898Y3293D01*
X2902Y3294D01*
X2905Y3295D01*
X2906Y3296D01*
Y3254D01*
D02*
G37*
G36*
X2535Y3295D02*
X2538Y3294D01*
X2542Y3293D01*
X2547Y3292D01*
X2560Y3291D01*
X2587Y3290D01*
X2598Y3290D01*
Y3260D01*
X2587Y3260D01*
X2542Y3257D01*
X2538Y3256D01*
X2535Y3255D01*
X2534Y3254D01*
Y3296D01*
X2535Y3295D01*
D02*
G37*
G36*
X2674Y3149D02*
X2672Y3150D01*
X2669Y3151D01*
X2665Y3152D01*
X2660Y3153D01*
X2647Y3154D01*
X2620Y3155D01*
X2609Y3155D01*
Y3185D01*
X2620Y3185D01*
X2665Y3188D01*
X2669Y3189D01*
X2672Y3190D01*
X2674Y3191D01*
Y3149D01*
D02*
G37*
G36*
X2535Y3190D02*
X2538Y3189D01*
X2542Y3188D01*
X2547Y3187D01*
X2560Y3186D01*
X2587Y3185D01*
X2598Y3185D01*
Y3155D01*
X2587Y3155D01*
X2542Y3152D01*
X2538Y3151D01*
X2535Y3150D01*
X2534Y3149D01*
Y3191D01*
X2535Y3190D01*
D02*
G37*
G36*
X444Y2661D02*
X442Y2662D01*
X439Y2664D01*
X435Y2664D01*
X430Y2665D01*
X417Y2667D01*
X390Y2667D01*
X379Y2667D01*
Y2698D01*
X390Y2698D01*
X435Y2701D01*
X439Y2701D01*
X442Y2703D01*
X444Y2704D01*
Y2661D01*
D02*
G37*
G36*
X1896Y1959D02*
X1895Y1960D01*
X1892Y1961D01*
X1888Y1962D01*
X1883Y1963D01*
X1870Y1964D01*
X1843Y1965D01*
X1832Y1965D01*
Y1995D01*
X1843Y1995D01*
X1888Y1998D01*
X1892Y1999D01*
X1895Y2000D01*
X1896Y2001D01*
Y1959D01*
D02*
G37*
G36*
X1555Y1969D02*
X1547Y1961D01*
X1517Y1927D01*
X1515Y1923D01*
X1514Y1920D01*
X1513Y1918D01*
X1483Y1948D01*
X1485Y1949D01*
X1488Y1950D01*
X1492Y1952D01*
X1496Y1955D01*
X1506Y1963D01*
X1518Y1975D01*
X1534Y1990D01*
X1555Y1969D01*
D02*
G37*
D11*
X370Y3480D02*
X930Y2920D01*
X1543D01*
X370Y3480D02*
Y4200D01*
X1927Y3697D02*
X3644D01*
X4296D02*
X4355Y3638D01*
X3644Y3697D02*
X4296D01*
X3630Y4400D02*
X3644Y4385D01*
Y3697D02*
Y4385D01*
X1543Y3312D02*
X1927Y3697D01*
X1543Y2920D02*
Y3312D01*
X5500Y7488D02*
X5978D01*
D14*
X5865Y7915D02*
D03*
X5565D02*
D03*
D20*
X2980Y4880D02*
D03*
X3120Y4880D02*
D03*
X2980Y4650D02*
D03*
X3120D02*
D03*
X2980Y4440D02*
D03*
X3120Y4440D02*
D03*
D21*
X5865Y8050D02*
D03*
Y8190D02*
D03*
X5565Y8050D02*
D03*
Y8190D02*
D03*
X802Y5990D02*
D03*
Y6130D02*
D03*
X4350Y6610D02*
D03*
Y6750D02*
D03*
D29*
X3415Y4883D02*
D03*
X3415Y5203D02*
D03*
X4078Y4485D02*
D03*
X4078Y4165D02*
D03*
D85*
X370Y5250D02*
X900Y5780D01*
X3010D01*
X3312Y5995D02*
X3520Y5788D01*
X3530D01*
X3138Y5485D02*
X3183Y5440D01*
X1892Y5485D02*
X3138D01*
X3165Y5603D02*
X3215Y5553D01*
X1650Y5603D02*
X3165D01*
X175Y2683D02*
X465D01*
X135Y2642D02*
X175Y2683D01*
X2512Y3170D02*
X2695D01*
X2512Y3275D02*
X2927D01*
X4192Y5080D02*
X4285Y4988D01*
Y4670D02*
Y4988D01*
X1545Y1980D02*
X1917D01*
X1485Y1920D02*
X1545Y1980D01*
X2334Y6269D02*
X2552Y6050D01*
X2334Y6269D02*
Y6272D01*
X5865Y7915D02*
Y8050D01*
X5565Y7915D02*
X5565Y7915D01*
Y8050D01*
X5565Y8050D01*
D86*
X8197Y5640D02*
X8197Y5640D01*
X7530Y5640D02*
X8197D01*
D91*
X8197Y5640D02*
X8197Y5640D01*
D92*
X7070Y3278D02*
D03*
X7830D02*
D03*
D93*
X7370Y7460D02*
D03*
D94*
X6870D02*
D03*
D95*
X5308Y8194D02*
D03*
X6172D02*
D03*
D96*
X5308Y7776D02*
D03*
X6172Y7776D02*
D03*
D97*
X6029Y7826D02*
D03*
X5451D02*
D03*
D98*
X3010Y5780D02*
D03*
D99*
X580Y670D02*
D03*
X231D02*
D03*
X-60Y7320D02*
D03*
X290D02*
D03*
X6615Y356D02*
D03*
X7495Y356D02*
D03*
X4855D02*
D03*
X5735D02*
D03*
X3975Y356D02*
D03*
X3095Y356D02*
D03*
X1760Y7650D02*
D03*
X2110D02*
D03*
X2990D02*
D03*
X3340D02*
D03*
X1930Y350D02*
D03*
X1580D02*
D03*
X4230Y7650D02*
D03*
X4580D02*
D03*
D100*
X-120Y670D02*
D03*
X640Y7320D02*
D03*
X6265Y356D02*
D03*
X7145Y356D02*
D03*
X4505D02*
D03*
X5385D02*
D03*
X3625Y356D02*
D03*
X2745D02*
D03*
X2460Y7650D02*
D03*
X3690D02*
D03*
X1230Y350D02*
D03*
X4930Y7650D02*
D03*
D101*
X8500Y8000D02*
D03*
X0D02*
D03*
X8500Y0D02*
D03*
X0D02*
D03*
D102*
X3052Y3100D02*
D03*
D103*
X4600Y6300D02*
D03*
X4800D02*
D03*
X3700Y7000D02*
D03*
Y7100D02*
D03*
Y7200D02*
D03*
X2500Y7000D02*
D03*
Y7100D02*
D03*
Y7200D02*
D03*
X1200Y900D02*
D03*
Y1000D02*
D03*
X7100Y4900D02*
D03*
Y5100D02*
D03*
X6900Y5400D02*
D03*
Y5600D02*
D03*
X6000Y6900D02*
D03*
X6200D02*
D03*
Y7100D02*
D03*
Y7300D02*
D03*
X6100Y7000D02*
D03*
X4200Y7200D02*
D03*
X4400D02*
D03*
X4500Y7300D02*
D03*
X4300D02*
D03*
X4100D02*
D03*
X3300Y7200D02*
D03*
X3000Y7300D02*
D03*
X2800D02*
D03*
X1900D02*
D03*
X1700D02*
D03*
X1500D02*
D03*
X2900Y6000D02*
D03*
Y6200D02*
D03*
Y6400D02*
D03*
Y6600D02*
D03*
X2800Y6500D02*
D03*
Y6300D02*
D03*
Y6100D02*
D03*
X2700Y6000D02*
D03*
Y6200D02*
D03*
Y6400D02*
D03*
Y6600D02*
D03*
X3800Y5800D02*
D03*
Y6000D02*
D03*
Y6200D02*
D03*
X3900Y6300D02*
D03*
X4200Y6400D02*
D03*
X4000D02*
D03*
X4300Y6500D02*
D03*
X4100D02*
D03*
X3900D02*
D03*
X3800Y6300D02*
D03*
X3700Y6100D02*
D03*
Y5900D02*
D03*
Y5700D02*
D03*
X2300Y1400D02*
D03*
X2500D02*
D03*
X2700D02*
D03*
X2900D02*
D03*
X3100D02*
D03*
X4200D02*
D03*
X4400D02*
D03*
X4600D02*
D03*
X4800D02*
D03*
X6100D02*
D03*
X6300D02*
D03*
X6500D02*
D03*
X6700D02*
D03*
X6800Y1300D02*
D03*
X6600D02*
D03*
X6400D02*
D03*
X6200D02*
D03*
X6000D02*
D03*
X4900D02*
D03*
X4700D02*
D03*
X4500D02*
D03*
X4300D02*
D03*
X4100D02*
D03*
X3900D02*
D03*
X2400D02*
D03*
X2600D02*
D03*
X2800D02*
D03*
X3000D02*
D03*
X3200D02*
D03*
X400Y1000D02*
D03*
X600D02*
D03*
Y1200D02*
D03*
Y1400D02*
D03*
Y1600D02*
D03*
X-210Y1440D02*
D03*
X-120Y1600D02*
D03*
X370Y4200D02*
D03*
Y5250D02*
D03*
X3530Y5788D02*
D03*
X3312Y5995D02*
D03*
X-120Y1755D02*
D03*
X1230Y1135D02*
D03*
X-120Y1445D02*
D03*
X1230Y825D02*
D03*
X5488Y4166D02*
D03*
X6528Y3380D02*
D03*
X4560Y5990D02*
D03*
X4687D02*
D03*
X5965Y1527D02*
D03*
X1735Y2482D02*
D03*
X2845Y2730D02*
D03*
X4355Y3638D02*
D03*
X3233Y1527D02*
D03*
X4072Y1527D02*
D03*
X4992Y1527D02*
D03*
X7593Y1527D02*
D03*
X6753Y1527D02*
D03*
X3183Y5440D02*
D03*
X1892Y5485D02*
D03*
X3215Y5553D02*
D03*
X1650Y5603D02*
D03*
X2530Y3697D02*
D03*
X2138D02*
D03*
X1543Y2920D02*
D03*
X3644Y3697D02*
D03*
X2757Y4710D02*
D03*
X3442Y4918D02*
D03*
X3332Y4918D02*
D03*
X3222Y4918D02*
D03*
X3112Y4918D02*
D03*
X3112Y4808D02*
D03*
X3112Y4698D02*
D03*
X3112Y4588D02*
D03*
X3112Y4478D02*
D03*
X3552Y4918D02*
D03*
X3630Y4840D02*
D03*
X3630Y4730D02*
D03*
X3190Y4400D02*
D03*
X3300Y4400D02*
D03*
X3410Y4400D02*
D03*
X3520Y4400D02*
D03*
X3630Y4620D02*
D03*
X3630Y4510D02*
D03*
X3630Y4400D02*
D03*
X135Y2642D02*
D03*
X465Y2683D02*
D03*
X2512Y3170D02*
D03*
Y3275D02*
D03*
X2927D02*
D03*
X3890Y6760D02*
D03*
X2655Y6757D02*
D03*
X4192Y5080D02*
D03*
X4285Y4670D02*
D03*
X6380Y8283D02*
D03*
X5565Y8190D02*
D03*
X5865Y8190D02*
D03*
X5642Y4166D02*
D03*
X7047Y4603D02*
D03*
X7245Y4760D02*
D03*
X5920Y5825D02*
D03*
X7120Y5935D02*
D03*
X7240Y5640D02*
D03*
X5847Y5175D02*
D03*
X5642Y5010D02*
D03*
X5647Y5567D02*
D03*
X7235Y5290D02*
D03*
X6897Y5212D02*
D03*
X4678Y6312D02*
D03*
X5238Y6235D02*
D03*
X2695Y3170D02*
D03*
X1484Y1918D02*
D03*
X1917Y1980D02*
D03*
X2334Y6272D02*
D03*
X2552Y6050D02*
D03*
X4803Y6758D02*
D03*
X3120Y6760D02*
D03*
X1890D02*
D03*
X514Y6138D02*
D03*
X5740Y7007D02*
D03*
X7380Y5940D02*
D03*
X6380Y5825D02*
D03*
X5500Y7488D02*
D03*
X5978D02*
D03*
X8500Y8240D02*
D03*
X8330Y8170D02*
D03*
X8260Y8000D02*
D03*
X8330Y7830D02*
D03*
X8500Y7760D02*
D03*
X8670Y7830D02*
D03*
X8740Y8000D02*
D03*
X8670Y8170D02*
D03*
X170D02*
D03*
X240Y8000D02*
D03*
X170Y7830D02*
D03*
X0Y7760D02*
D03*
X-170Y7830D02*
D03*
X-240Y8000D02*
D03*
X-170Y8170D02*
D03*
X0Y8240D02*
D03*
X8670Y170D02*
D03*
X8740Y0D02*
D03*
X8670Y-170D02*
D03*
X8500Y-240D02*
D03*
X8330Y-170D02*
D03*
X8260Y0D02*
D03*
X8330Y170D02*
D03*
X8500Y240D02*
D03*
X0D02*
D03*
X-170Y170D02*
D03*
X-240Y0D02*
D03*
X-170Y-170D02*
D03*
X0Y-240D02*
D03*
X170Y-170D02*
D03*
X240Y0D02*
D03*
X170Y170D02*
D03*
D104*
X7500Y3750D02*
D03*
X7250D02*
D03*
X7000Y4000D02*
D03*
X6750Y4250D02*
D03*
X6500Y4500D02*
D03*
X6250D02*
D03*
X6000D02*
D03*
X5750Y5250D02*
D03*
Y5500D02*
D03*
Y5750D02*
D03*
X5500Y5000D02*
D03*
Y5250D02*
D03*
Y5500D02*
D03*
Y5750D02*
D03*
X5750Y6000D02*
D03*
X6000Y6250D02*
D03*
Y6500D02*
D03*
X5500Y6750D02*
D03*
X5250Y7000D02*
D03*
Y7250D02*
D03*
Y7500D02*
D03*
X6000Y7000D02*
D03*
X7250Y5000D02*
D03*
Y5500D02*
D03*
X7000Y5250D02*
D03*
Y5500D02*
D03*
Y5750D02*
D03*
X750Y2250D02*
D03*
X1250D02*
D03*
X1750D02*
D03*
X2250D02*
D03*
X2750D02*
D03*
X4250Y3000D02*
D03*
Y4000D02*
D03*
X4000Y3000D02*
D03*
X3750D02*
D03*
X3500D02*
D03*
X4250Y2500D02*
D03*
X4000D02*
D03*
X3750D02*
D03*
X3500D02*
D03*
X1250Y3500D02*
D03*
Y3750D02*
D03*
Y4000D02*
D03*
Y4250D02*
D03*
X1500D02*
D03*
Y4500D02*
D03*
Y4750D02*
D03*
Y5000D02*
D03*
Y5250D02*
D03*
X3000Y4250D02*
D03*
X2500Y4750D02*
D03*
X2750D02*
D03*
X4250Y5250D02*
D03*
X4500D02*
D03*
X4000D02*
D03*
Y5500D02*
D03*
X7750Y750D02*
D03*
X6500D02*
D03*
X6250D02*
D03*
X6000D02*
D03*
X2750D02*
D03*
X4500D02*
D03*
X4750D02*
D03*
X4250D02*
D03*
X3000D02*
D03*
X2500D02*
D03*
Y250D02*
D03*
Y-250D02*
D03*
X2000D02*
D03*
X1500D02*
D03*
X1000D02*
D03*
X500D02*
D03*
X-250Y1000D02*
D03*
Y2000D02*
D03*
Y2500D02*
D03*
Y3000D02*
D03*
Y3500D02*
D03*
Y4000D02*
D03*
Y4500D02*
D03*
Y5000D02*
D03*
Y5500D02*
D03*
Y6000D02*
D03*
Y6500D02*
D03*
Y7000D02*
D03*
Y7500D02*
D03*
X500Y8250D02*
D03*
X1000D02*
D03*
X1500D02*
D03*
X2000D02*
D03*
X2500D02*
D03*
X3000D02*
D03*
X3500D02*
D03*
X4000D02*
D03*
X4500D02*
D03*
X5000D02*
D03*
X5500D02*
D03*
X6000D02*
D03*
X6500D02*
D03*
X7000D02*
D03*
X7500D02*
D03*
X8000D02*
D03*
X8750Y7500D02*
D03*
Y7000D02*
D03*
Y6500D02*
D03*
Y6000D02*
D03*
Y5500D02*
D03*
Y5000D02*
D03*
Y4500D02*
D03*
Y4000D02*
D03*
Y3500D02*
D03*
Y3000D02*
D03*
Y2500D02*
D03*
Y2000D02*
D03*
Y1500D02*
D03*
Y1000D02*
D03*
Y500D02*
D03*
X5795Y1085D02*
D03*
D105*
X7530Y5640D02*
D03*
X8197Y5640D02*
D03*
D106*
X5630Y4683D02*
D03*
X5803D02*
D03*
D107*
X5240D02*
Y6585D01*
X3620Y4490D02*
X4680D01*
X1627Y6760D02*
X5065D01*
X514Y6140D02*
X1007D01*
X5802Y1092D02*
X5803Y4683D01*
X5795Y1085D02*
X5802Y1092D01*
X4680Y4490D02*
X4872Y4683D01*
X5240D01*
X5630D02*
X5803D01*
X5240D02*
X5630D01*
X5065Y6760D02*
X5240Y6585D01*
X1007Y6140D02*
X1627Y6760D01*
M02*
